<?xml version="1.0" encoding="utf-8"?>
<!-- Generator: Adobe Illustrator 19.2.1, SVG Export Plug-In . SVG Version: 6.00 Build 0)  -->
<svg version="1.1" id="layer" xmlns="http://www.w3.org/2000/svg" xmlns:xlink="http://www.w3.org/1999/xlink" x="0px" y="0px"
	 viewBox="0 0 652 652" style="enable-background:new 0 0 652 652;" xml:space="preserve">
<style type="text/css">
	.st0{fill:#2B2C2C;}
	.st1{fill:#FFDE26;}
	.st2{fill:#262626;}
	.st3{fill:#FFFFFF;}
	.st4{fill:#E53E33;}
	.st5{fill:#2F2F27;}
	.st6{fill:#2C2F2C;}
</style>
<g>
	<g>
		<path class="st0" d="M376.5,297.2l2.6-6.9c1-2.7,1.5-4.3,1.8-5.5h0.1c0.3,1.2,0.8,2.8,1.8,5.4l2.5,7H376.5z M383.4,275.9h-5.1
			l-13.6,35.3h6.7l3.3-8.8h12.5l3.4,8.8h6.9L383.4,275.9z"/>
	</g>
	<g>
		<path class="st0" d="M446.1,295.9c0.1-3,1.8-5.7,4.9-5.7c3.4,0,4.8,2.8,4.9,5.7H446.1z M451.1,285.3c-7.2,0-11.4,5.7-11.4,13.3
			c0,6.8,3.7,13.1,12.9,13.1c3.1,0,6.2-0.7,8.9-2.3l-1.9-4.4c-1.8,1-3.8,1.7-6.4,1.7c-4.2,0-7-2.5-7.1-6.4h16.2v-1.5
			C462.3,290.4,458.2,285.3,451.1,285.3"/>
	</g>
	<g>
		<path class="st0" d="M556.2,295.9c0.1-3,1.8-5.7,4.9-5.7c3.4,0,4.8,2.8,4.9,5.7H556.2z M561.2,285.3c-7.2,0-11.4,5.7-11.4,13.3
			c0,6.8,3.7,13.1,12.9,13.1c3.1,0,6.2-0.7,8.9-2.3l-1.9-4.4c-1.8,1-3.8,1.7-6.4,1.7c-4.2,0-7-2.5-7.1-6.4h16.2v-1.5
			C572.4,290.4,568.3,285.3,561.2,285.3"/>
	</g>
	<g>
		<path class="st0" d="M612.1,278.2l-6.3,1.9v5.9h-4.5v5h4.5v14c0,4.2,2.7,6.8,7.2,6.8c2.5,0,5.6-0.7,7.4-2l-1.9-4.4
			c-1,0.6-2.4,1.2-3.8,1.2c-1.7,0-2.5-0.9-2.5-3.2v-12.5h0.3v0h2.1c2.9,0,3.7-1.5,4.1-2.2l1.2-2.5l0.1-0.1l-0.1-0.1h-7.4v0h-0.3
			L612.1,278.2L612.1,278.2z"/>
	</g>
	<g>
		<path class="st0" d="M428.5,285.3c-5.9,0-9.5,3.1-9.5,7.6c0,8.4,11.8,6.8,11.8,11.1c0,1.9-1.9,2.7-4.4,2.7c-2.6,0-5-0.9-6.9-2.1
			l-0.3,0.7l-1.1,4.3c2.1,1.2,5.1,2.1,8.7,2.1c5.4,0,10.2-2.3,10.2-7.8c0-8.8-11.8-7.3-11.8-11.3c0-1.7,1.4-2.3,3.6-2.3
			c2.2,0,4.2,0.5,6,1.1l1.2-4.5v-0.4C433.8,285.8,431.3,285.3,428.5,285.3"/>
	</g>
	<g>
		<path class="st0" d="M474.9,285.3c-5.9,0-9.5,3.1-9.5,7.6c0,8.4,11.8,6.8,11.8,11.1c0,1.9-1.9,2.7-4.4,2.7c-2.4,0-4.7-0.8-6.6-1.9
			l-1.3,5c2.1,1.1,5,1.9,8.4,1.9c5.4,0,10.2-2.3,10.2-7.8c0-8.8-11.8-7.3-11.8-11.3c0-1.7,1.4-2.3,3.6-2.3c2.2,0,4.1,0.5,5.9,1.1
			l1.2-4.7v-0.2C480.2,285.8,477.7,285.3,474.9,285.3"/>
	</g>
	<g>
		<path class="st0" d="M496,285.3c-5.9,0-9.5,3.1-9.5,7.6c0,8.4,11.8,6.8,11.8,11.1c0,1.9-1.9,2.7-4.4,2.7c-2.5,0-4.8-0.8-6.7-2
			l-1.3,5c2.1,1.1,5,2,8.4,2c5.4,0,10.2-2.3,10.2-7.8c0-8.8-11.8-7.3-11.8-11.3c0-1.7,1.4-2.3,3.6-2.3c2.2,0,4.1,0.5,5.9,1.1
			l1.3-4.8v-0.1C501.3,285.8,498.8,285.3,496,285.3"/>
	</g>
	<g>
		<path class="st0" d="M407.5,285.3c-5.9,0-9.5,3.1-9.5,7.6c0,8.4,11.8,6.8,11.8,11.1c0,1.9-1.9,2.7-4.4,2.7c-2.6,0-5-0.9-6.9-2.1
			l0,0l2.4,6.4c1.5,0.4,3.1,0.6,4.9,0.6c5.4,0,10.2-2.3,10.2-7.8c0-8.8-11.8-7.3-11.8-11.3c0-1.7,1.4-2.3,3.6-2.3
			c2.2,0,4.1,0.5,5.9,1.1l1.2-4.7v-0.2C412.8,285.8,410.3,285.3,407.5,285.3"/>
	</g>
	<g>
		<path class="st0" d="M507.9,284.9l-0.1,0.1v14.4v11.8h6.3v-17.8c1.9-1.5,4-2.5,6-2.5c3.3,0,3.7,2.5,3.7,5.4v14.9h6.4v-16.9l0-1
			c1.8-1.5,3.9-2.5,6-2.5c3.3,0,3.8,2.3,3.8,5.3v15h6.4v-16.7c0-6.7-3.9-9.1-8.4-9.1c-2.8,0-6,1.3-9.1,3.9c-1.2-2.5-3.6-3.9-6.7-3.9
			s-6,1.5-8.5,3.5h-0.2c-0.6-1.3-1.7-1.9-2.3-2.2l-3.2-1.6L507.9,284.9z"/>
	</g>
	<g>
		<path class="st0" d="M576.1,284.9l-0.1,0.1v14.4v11.8h6.3v-17.7c1.9-1.5,4.1-2.7,6.2-2.7c3.3,0,3.9,2.5,3.9,5.6v14.7h6.4v-16.7
			c0-7.2-4.1-9.2-8.1-9.2c-3.1,0-6,1.4-8.6,3.5h-0.3c-0.6-1.3-1.7-1.9-2.3-2.2l-3.2-1.6L576.1,284.9z"/>
	</g>
	<g>
		<path class="st0" d="M137.4,275.5c-11.3,0-18.6,8.1-18.6,18.3c0,10.3,6.2,17.7,17.8,17.7c3.4,0,7.1-0.6,10.9-2.6
			c-0.9-1.4-1.5-3.2-1.5-5.2c-2.5,1.4-5.2,2.4-8.6,2.4c-7.2,0-11.7-5.1-11.7-12.5c0-6.9,4.1-12.8,11.9-12.8c3.4,0,6.3,0.9,9.1,2.3
			v-6C144.5,276.2,141.3,275.5,137.4,275.5"/>
	</g>
	<g>
		<path class="st0" d="M227,305.9c-0.9,0-1.9-0.1-2.9-0.4v-14.6c0.8-0.3,1.9-0.8,3.8-0.8c4.2,0,6.6,3.1,6.6,7.5
			C234.5,302.6,231.6,305.9,227,305.9 M224.1,272.9h-6.4v36.5c2.1,1.1,5,1.8,8.3,1.8c8.6,0,15.1-5.1,15.1-14c0-8-5.4-12.4-12.1-12.4
			c-2,0-3.5,0.3-4.9,0.7V272.9z"/>
	</g>
	<g>
		<path class="st0" d="M289.1,306.2c-4.6,0-7.7-2.8-7.7-7.7c0-5.2,3.3-8.2,7.7-8.2c1.3,0,2.1,0.2,3,0.4v15.1
			C291.3,306.1,290,306.2,289.1,306.2 M298.5,273.2h-6.4v12.2c-1-0.2-2.5-0.3-3.4-0.3c-8,0-13.8,5.5-13.8,13.5
			c0,8.3,6.1,12.9,14.4,12.9c3.1,0,6.8-0.6,9.3-1.9V273.2z"/>
	</g>
	<g>
		<path class="st0" d="M333.3,295.6c0.1-3,1.8-5.7,4.9-5.7c3.4,0,4.8,2.8,4.9,5.7H333.3z M338.3,285.1c-7.2,0-11.4,5.7-11.4,13.3
			c0,6.8,3.7,13.1,12.9,13.1c3.1,0,6.2-0.7,8.9-2.4l-1.9-4.4c-1.8,1-3.8,1.7-6.3,1.7c-4.2,0-7-2.5-7.1-6.4h16.2v-1.5
			C349.5,290.2,345.4,285.1,338.3,285.1"/>
	</g>
	<g>
		<path class="st0" d="M158.6,306.5c-2.3,0-3.7-1.3-3.7-3.5c0-1.3,0.5-2.3,1.5-2.9c0.9-0.5,2-0.8,3.7-0.8l3.3-0.1v5.3l0,0.2
			C162.5,305.4,160.9,306.5,158.6,306.5 M159.8,285.1c-3.5,0-6.8,0.8-9.8,2.5l2.1,4.1c1.8-1,4.1-1.8,6.6-1.8c2.9,0,4.9,1.3,4.9,4.2
			v0.8l-4.3,0.2c-2.6,0.1-4.7,0.5-6.5,1.4c-2.6,1.3-4.3,3.5-4.3,6.9c0,4.9,3.6,8.1,8.4,8.1c3.1,0,5.4-1.3,7.3-2.9h0.5
			c0.6,0.7,1.3,1.1,1.7,1.4l3.3,1.7l0.1,0.1l0.1-0.1v-14.9h0v-2.5C169.9,288.2,166.5,285.1,159.8,285.1"/>
	</g>
	<g>
		<path class="st0" d="M174.7,284.5l-0.1,0.1v3.8v22.4h6.3V299V293c1.9-1.5,4-2.5,6-2.5c3.3,0,3.7,2.5,3.7,5.4v14.9h6.4V294l-0.1-1
			c1.8-1.5,3.9-2.5,6-2.5c3.3,0,3.8,2.3,3.8,5.3v15h6.4v-16.7c0-6.7-3.9-9.1-8.4-9.1c-2.8,0-6,1.3-9.1,3.9c-1.2-2.5-3.6-3.9-6.7-3.9
			c-3.1,0-6,1.5-8.5,3.5h-0.2c-0.7-1.3-1.7-1.9-2.3-2.2l-3.2-1.6L174.7,284.5z"/>
	</g>
	<g>
		<path class="st0" d="M257.9,285.2c-2.9,0-5.4,1.5-6.9,3.3l-0.7-2.8h-5.4V311h6.4v-17.8c2-2.4,3.9-3.1,5.5-3.1
			c2.3,0,3.9,1.5,3.9,1.5v-5.8C259.7,285.4,258.7,285.2,257.9,285.2"/>
	</g>
	<g>
		<path class="st0" d="M270.8,285.7h-6.4V311h6.4V285.7z M267.6,274c-2.2,0-3.9,1.7-3.9,3.8c0,2.1,1.7,3.8,3.9,3.8
			c2.2,0,4-1.7,4-3.8C271.5,275.6,269.8,274,267.6,274"/>
	</g>
	<g>
		<path class="st0" d="M313.6,318.2c-4.2,0-6.9-1.5-6.9-4.1c0-1.7,1.2-2.7,2-3.3c3.4,1.3,11.3,0.6,11.3,4.2
			C320,316.9,317.4,318.2,313.6,318.2 M313.1,298.3c-2.8,0-4.4-2.2-4.4-4.7c0-3,1.9-4.7,4.4-4.7c2.8,0,4.5,2.2,4.5,4.8
			C317.6,296.7,315.7,298.3,313.1,298.3 M326.7,284.1h-4.8h-5h-0.1v0H313c-6.9,0-10.3,4.6-10.3,9.3c0,3.4,1.5,6.3,4.2,7.8
			c-2.1,1.4-3,3.3-3,4.7c0,1.3,0.6,2.5,1.7,3.2c-2.6,1.1-4.5,3.3-4.5,6.1c0,4.4,4.3,7.4,11.7,7.4c8.8,0,13.3-3.7,13.3-8.3
			c0-9.4-16.6-5.2-16.6-9.8c0-0.5,0.2-1.1,0.6-1.9c0.9,0.3,1.9,0.4,3.1,0.4c6.1,0,10.5-3.7,10.5-9.3c0-2-0.6-3.8-1.8-5.4h0.2h0.5v0
			c2.1-0.2,2.7-1.3,3.1-1.9l1.1-2.2L326.7,284.1L326.7,284.1z"/>
	</g>
	<g>
		<rect x="120.4" y="328.1" class="st0" width="4.7" height="35"/>
	</g>
	<g>
		<path class="st0" d="M131.9,338h3.9l0.6,3.1c2.7-2.2,5.5-3.7,8.7-3.7c4,0,7.7,2.3,7.7,8.9v16.9h-4.7v-15.3c0-3.6-0.9-6.3-4.3-6.3
			c-2.6,0-5,1.5-7.2,3.4v18.2h-4.7C131.9,363.1,131.9,338,131.9,338z"/>
	</g>
	<g>
		<path class="st0" d="M160.5,357.5v-15.7h-4.3V338h4.3v-5.7l4.7-1.5v7.2h7.5l-1.3,3.8h-6.3v14.8c0,2.2,0.9,3.2,2.6,3.2
			c1.6,0,3-0.7,4-1.3l1.5,3.2c-1.6,1.2-4.1,2-6.6,2C162.8,363.6,160.5,361.4,160.5,357.5"/>
	</g>
	<g>
		<path class="st0" d="M191.5,348.1c-0.1-3.5-1.8-7-5.5-7c-3.6,0-5.8,3.2-5.8,7H191.5z M180.2,351.6c0.1,4.7,3,8.2,7.9,8.2
			c2.4,0,4.5-0.7,6.3-1.7l1.4,3.2c-2.3,1.5-5.4,2.3-8.2,2.3c-8.3,0-12.2-6.1-12.2-13.3c0-7.7,4.2-13,10.6-13c6.6,0,10.4,5,10.4,13.1
			v1.2H180.2z"/>
	</g>
	<g>
		<path class="st0" d="M200.8,338h3.9l0.5,3.1c2.7-2.8,4.7-3.7,7.1-3.7c1.1,0,2.2,0.3,3,0.7l-1.6,4.1c-0.8-0.4-1.6-0.6-2.4-0.6
			c-1.8,0-3.4,1-5.7,3.2v18.3h-4.7C200.8,363.1,200.8,338,200.8,338z"/>
	</g>
	<g>
		<path class="st0" d="M217.5,338h3.9l0.6,3.1c2.7-2.2,5.5-3.7,8.7-3.7c4,0,7.7,2.3,7.7,8.9v16.9h-4.7v-15.3c0-3.6-0.9-6.3-4.3-6.3
			c-2.6,0-5,1.5-7.2,3.4v18.2h-4.7V338z"/>
	</g>
	<g>
		<path class="st0" d="M253.8,351c-2,0.1-3.4,0.4-4.4,0.9c-1.3,0.7-2,2-2,3.6c0,2.6,1.7,4.3,4.4,4.3c2.9,0,5-1.8,6.1-2.9v-6.1
			L253.8,351z M258.2,360.4c-1.9,1.8-4.4,3.2-7.5,3.2c-4.6,0-8.1-3-8.1-7.9c0-3.3,1.7-5.6,4.3-6.8c1.8-0.9,3.8-1.2,6.3-1.3l4.7-0.2
			v-1.3c0-3.6-2.2-5.1-5.2-5.1c-2.9,0-5,0.9-6.9,2l-1.6-3.2c2.9-1.8,6.1-2.5,9.1-2.5c5.7,0,9.3,2.7,9.3,8.8v9.1
			c0,4.3,0.2,6.6,0.5,7.9h-4L258.2,360.4z"/>
	</g>
	<g>
		<path class="st0" d="M270.2,357.5v-15.7h-4.3V338h4.3v-5.7l4.7-1.5v7.2h7.5l-1.3,3.8h-6.3v14.8c0,2.2,0.9,3.2,2.5,3.2
			c1.6,0,3-0.7,4-1.3l1.5,3.2c-1.6,1.2-4.1,2-6.6,2C272.5,363.6,270.2,361.4,270.2,357.5"/>
	</g>
	<g>
		<path class="st0" d="M286.7,338h4.7v25.2h-4.7V338z M286.1,329.8c0-1.7,1.2-3,3-3c1.8,0,3.1,1.3,3.1,3c0,1.7-1.3,3-3.1,3
			C287.3,332.8,286.1,331.5,286.1,329.8"/>
	</g>
	<g>
		<path class="st0" d="M315.3,350.5c0-5.4-2.7-9.3-7.1-9.3c-4.5,0-7.1,3.9-7.1,9.3c0,5.4,2.7,9.2,7.1,9.2
			C312.6,359.8,315.3,355.9,315.3,350.5 M296.2,350.5c0-7.4,4.7-13.2,12-13.2c7.1,0,11.9,5.7,11.9,13.2c0,7.4-4.7,13.1-12,13.1
			C301,363.6,296.2,357.9,296.2,350.5"/>
	</g>
	<g>
		<path class="st0" d="M324.4,338h3.9l0.6,3.1c2.7-2.2,5.5-3.7,8.7-3.7c4,0,7.7,2.3,7.7,8.9v16.9h-4.7v-15.3c0-3.6-0.9-6.3-4.3-6.3
			c-2.6,0-5,1.5-7.2,3.4v18.2h-4.7L324.4,338L324.4,338z"/>
	</g>
	<g>
		<path class="st0" d="M360.7,351c-2,0.1-3.4,0.4-4.4,0.9c-1.3,0.7-2,2-2,3.6c0,2.6,1.7,4.3,4.4,4.3c2.9,0,5-1.8,6.1-2.9v-6.1
			L360.7,351z M365.1,360.4c-1.9,1.8-4.4,3.2-7.5,3.2c-4.6,0-8.1-3-8.1-7.9c0-3.3,1.7-5.6,4.3-6.8c1.8-0.9,3.8-1.2,6.3-1.3l4.7-0.2
			v-1.3c0-3.6-2.2-5.1-5.2-5.1c-2.9,0-5.1,0.9-6.9,2l-1.6-3.2c2.9-1.8,6.1-2.5,9.1-2.5c5.7,0,9.3,2.7,9.3,8.8v9.1
			c0,4.3,0.2,6.6,0.5,7.9h-4L365.1,360.4z"/>
	</g>
	<g>
		<path class="st0" d="M375.3,325.5h4.7v31.4c0,1.9,0.6,2.5,1.9,2.5c0.4,0,1.2-0.2,1.6-0.3l1,3.7c-1.2,0.5-2.7,0.7-3.9,0.7
			c-3.5,0-5.2-1.9-5.2-5.3L375.3,325.5L375.3,325.5z"/>
	</g>
	<g>
		<polygon class="st0" points="399.7,328.1 417.4,328.1 415.9,332.1 404.4,332.1 404.4,343.2 415.8,343.2 415.8,347.3 404.4,347.3 
			404.4,359.1 417.6,359.1 417.6,363.1 399.7,363.1 		"/>
	</g>
	<g>
		<path class="st0" d="M439,359.1v-17.2c-1.2-0.4-2.1-0.6-3.7-0.6c-4.8,0-8.7,3.4-8.7,9.5c0,5.5,3.4,8.9,8.8,8.9
			C436.5,359.7,438,359.5,439,359.1 M421.7,350.8c0-8.1,5.8-13.5,13.2-13.5c1.3,0,2.7,0.1,4,0.5v-12.3h4.7v36.4
			c-2,1.1-5.2,1.8-8.4,1.8C427.7,363.6,421.7,359.2,421.7,350.8"/>
	</g>
	<g>
		<path class="st0" d="M450.2,358.9c-0.5-1.4-0.7-2.7-0.7-4.8V338h4.7v15.3c0,1.6,0.1,2.7,0.5,3.7c0.6,1.8,2,2.6,4,2.6
			c2.7,0,5.2-1.5,6.4-3.1V338h4.7v17.4c0,4.2,0.2,6.5,0.5,7.8h-4.1l-0.8-2.8c-2.1,1.9-4.9,3.3-8.2,3.3
			C454.8,363.6,451.6,362.6,450.2,358.9"/>
	</g>
	<g>
		<path class="st0" d="M474.7,350.8c0-7.5,5.1-13.5,12.8-13.5c2.7,0,4.9,0.7,6.4,1.6v4.1c-1.7-1.1-3.6-1.8-6.1-1.8
			c-5.2,0-8.3,4-8.3,9.3c0,5.9,3.1,9.3,8,9.3c2.6,0,4.4-0.9,6-1.8l1.4,3.3c-1.9,1.3-4.8,2.3-8,2.3
			C479,363.6,474.7,357.9,474.7,350.8"/>
	</g>
	<g>
		<path class="st0" d="M507.7,351c-2,0.1-3.4,0.4-4.4,0.9c-1.3,0.7-2,2-2,3.6c0,2.6,1.7,4.3,4.4,4.3c2.9,0,5-1.8,6.1-2.9v-6.1
			L507.7,351z M512.1,360.4c-1.9,1.8-4.4,3.2-7.5,3.2c-4.6,0-8.1-3-8.1-7.9c0-3.3,1.7-5.6,4.3-6.8c1.8-0.9,3.8-1.2,6.3-1.3l4.7-0.2
			v-1.3c0-3.6-2.2-5.1-5.2-5.1c-2.9,0-5.1,0.9-6.9,2l-1.6-3.2c2.9-1.8,6.1-2.5,9.1-2.5c5.7,0,9.3,2.7,9.3,8.8v9.1
			c0,4.3,0.2,6.6,0.5,7.9h-4L512.1,360.4z"/>
	</g>
	<g>
		<path class="st0" d="M524.1,357.5v-15.7h-4.3V338h4.3v-5.7l4.7-1.5v7.2h7.5l-1.3,3.8h-6.3v14.8c0,2.2,0.9,3.2,2.6,3.2
			c1.6,0,3-0.7,4-1.3l1.5,3.2c-1.6,1.2-4.1,2-6.6,2C526.4,363.6,524.1,361.4,524.1,357.5"/>
	</g>
	<g>
		<path class="st0" d="M540.6,338h4.7v25.2h-4.7V338z M540,329.8c0-1.7,1.2-3,3-3c1.8,0,3.1,1.3,3.1,3c0,1.7-1.3,3-3.1,3
			S540,331.5,540,329.8"/>
	</g>
	<g>
		<path class="st0" d="M569.2,350.5c0-5.4-2.7-9.3-7.1-9.3c-4.5,0-7.1,3.9-7.1,9.3c0,5.4,2.7,9.2,7.1,9.2
			C566.5,359.8,569.2,355.9,569.2,350.5 M550.2,350.5c0-7.4,4.7-13.2,12-13.2c7.1,0,11.9,5.7,11.9,13.2c0,7.4-4.7,13.1-12,13.1
			C554.9,363.6,550.2,357.9,550.2,350.5"/>
	</g>
	<g>
		<path class="st0" d="M578.3,338h3.9l0.6,3.1c2.7-2.2,5.5-3.7,8.7-3.7c4,0,7.7,2.3,7.7,8.9v16.9h-4.7v-15.3c0-3.6-0.9-6.3-4.3-6.3
			c-2.6,0-5,1.5-7.2,3.4v18.2h-4.7L578.3,338L578.3,338z"/>
	</g>
	<g>
		<path class="st1" d="M99.2,325.4c-0.2,4.3-0.8,8.2-1.9,11.7c-1,3.3-2.5,6.3-4.4,8.8c-3.5,4.7-7.8,7-10.7,8.5
			c-0.2,0.1-1.9,1-10.1,5.1l0.1,0.2h0.2v-34h27v-0.4H72V360l0.3-0.1c8.2-4.1,9.9-4.9,10.1-5.1c2.9-1.6,7.2-3.9,10.8-8.7
			c1.9-2.5,3.4-5.5,4.5-8.9c1.1-3.5,1.7-7.4,1.9-11.8L99.2,325.4z"/>
	</g>
	<g>
		<path class="st1" d="M51.1,325.5v34.2h0.2l0.1-0.2c-8.2-4.1-9.9-4.9-10.1-5.1c-2.9-1.6-7.1-3.9-10.7-8.6c-1.9-2.5-3.4-5.5-4.4-8.8
			c-1.1-3.4-1.7-7.3-1.9-11.7l-0.2,0v0.2h27.2v-0.4H23.9l0,0.2c0.2,4.3,0.8,8.3,1.9,11.8c1.1,3.4,2.6,6.3,4.5,8.9
			c3.6,4.7,7.9,7.1,10.8,8.7c0.3,0.1,2,1,10.1,5.1l0.3,0.2v-34.5H51.1z"/>
	</g>
	<g>
		<polygon class="st2" points="99.4,276.7 99.4,276.5 72,276.5 72,304.8 99.7,304.8 99.7,276.5 99.4,276.5 99.4,276.7 99.2,276.7 
			99.2,304.4 72.4,304.4 72.4,276.9 99.4,276.9 99.4,276.7 99.2,276.7 		"/>
	</g>
	<g>
		<polygon class="st2" points="51.3,276.7 51.3,276.5 23.9,276.5 23.9,304.8 51.5,304.8 51.5,276.5 51.3,276.5 51.3,276.7 
			51.1,276.7 51.1,304.4 24.3,304.4 24.3,276.9 51.3,276.9 51.3,276.7 51.1,276.7 		"/>
	</g>
	<g>
		<path class="st0" d="M61.8,369.1l-0.8-0.4c-1.2-0.6-20.4-10.1-21.5-10.7c-6.2-3.4-19.1-10.4-19.1-35v-50h82.9v50
			c0,24.6-12.9,31.6-19.1,35c-1.1,0.6-20.4,10.2-21.5,10.7L61.8,369.1z"/>
	</g>
	<g>
		<path class="st3" d="M70.2,306.6v-31.9H53.3v31.9H22.1v16.4l0,0.5h31.2v39.4c4.5,2.2,8.4,4.2,8.4,4.2l0,0l0,0c0,0,3.9-2,8.4-4.2
			v-39.4h31.2v-0.5v-16.4C101.4,306.6,70.2,306.6,70.2,306.6z"/>
	</g>
	<g>
		<rect x="22.1" y="274.7" class="st4" width="31.2" height="31.9"/>
	</g>
	<g>
		<rect x="70.2" y="274.7" class="st4" width="31.2" height="31.9"/>
	</g>
	<g>
		<path class="st4" d="M53.3,323.5H22.1c0.2,22.9,11.9,29.5,18.2,32.9c0.6,0.3,7.3,3.7,13.1,6.5V323.5z"/>
	</g>
	<g>
		<path class="st4" d="M70.2,323.5v39.4c5.7-2.9,12.4-6.2,13.1-6.5c6.3-3.4,18-10,18.2-32.9H70.2z"/>
	</g>
	<g>
		<path class="st0" d="M80.9,315.3l0.6-0.8l-0.8-1l-0.8,1l0.6,0.8c0,0.4,0,3.8-2,5c0,0,0.7,0.1,1.6,0c0,0,0.2,0.9,0.6,1.9
			c0.4-1,0.6-1.9,0.6-1.9c0.9,0.2,1.6,0,1.6,0C80.9,319,80.9,315.7,80.9,315.3"/>
	</g>
	<g>
		<path class="st0" d="M86,309.5l0.6-0.8l-0.8-1l-0.8,1l0.6,0.8c0,0.4,0,3.8-2,5c0,0,0.7,0.1,1.6,0c0,0,0.2,0.9,0.6,1.9
			c0.4-1,0.6-1.9,0.6-1.9c0.9,0.2,1.6,0,1.6,0C86,313.3,86,309.9,86,309.5"/>
	</g>
	<g>
		<path class="st0" d="M91.1,315.3l0.6-0.8l-0.8-1l-0.8,1l0.6,0.8c0,0.4,0,3.8-2,5c0,0,0.7,0.1,1.6,0c0,0,0.2,0.9,0.6,1.9
			c0.4-1,0.6-1.9,0.6-1.9c0.9,0.2,1.6,0,1.6,0C91.1,319,91.1,315.7,91.1,315.3"/>
	</g>
	<g>
		<path class="st0" d="M96.2,309.5l0.6-0.8l-0.8-1l-0.8,1l0.6,0.8c0,0.4,0,3.8-2,5c0,0,0.7,0.1,1.6,0c0,0,0.2,0.9,0.6,1.9
			c0.4-1,0.6-1.9,0.6-1.9c0.9,0.2,1.6,0,1.6,0C96.2,313.3,96.2,309.9,96.2,309.5"/>
	</g>
	<g>
		<path class="st0" d="M75.8,309.5l0.6-0.8l-0.8-1l-0.8,1l0.6,0.8c0,0.4,0,3.8-2,5c0,0,0.7,0.1,1.6,0c0,0,0.2,0.9,0.6,1.9
			c0.4-1,0.6-1.9,0.6-1.9c0.9,0.2,1.6,0,1.6,0C75.8,313.3,75.8,309.9,75.8,309.5"/>
	</g>
	<g>
		<path class="st0" d="M32.8,315.3l0.6-0.8l-0.8-1l-0.8,1l0.6,0.8c0,0.4,0,3.8-2,5c0,0,0.7,0.1,1.6,0c0,0,0.2,0.9,0.6,1.9
			c0.4-1,0.6-1.9,0.6-1.9c0.9,0.2,1.6,0,1.6,0C32.7,319,32.7,315.7,32.8,315.3"/>
	</g>
	<g>
		<path class="st0" d="M37.8,309.5l0.6-0.8l-0.8-1l-0.8,1l0.6,0.8c0,0.4,0,3.8-2,5c0,0,0.7,0.1,1.6,0c0,0,0.2,0.9,0.6,1.9
			c0.4-1,0.6-1.9,0.6-1.9c0.9,0.2,1.6,0,1.6,0C37.8,313.3,37.8,309.9,37.8,309.5"/>
	</g>
	<g>
		<path class="st0" d="M42.9,315.3l0.6-0.8l-0.8-1l-0.8,1l0.6,0.8c0,0.4,0,3.8-2,5c0,0,0.7,0.1,1.6,0c0,0,0.2,0.9,0.6,1.9
			c0.4-1,0.6-1.9,0.6-1.9c0.9,0.2,1.6,0,1.6,0C42.9,319,42.9,315.7,42.9,315.3"/>
	</g>
	<g>
		<path class="st0" d="M48,309.5l0.6-0.8l-0.8-1l-0.8,1l0.6,0.8c0,0.4,0,3.8-2,5c0,0,0.7,0.1,1.6,0c0,0,0.2,0.9,0.6,1.9
			c0.4-1,0.6-1.9,0.6-1.9c0.9,0.2,1.6,0,1.6,0C48,313.3,48,309.9,48,309.5"/>
	</g>
	<g>
		<path class="st0" d="M27.7,309.5l0.6-0.8l-0.8-1l-0.8,1l0.6,0.8c0,0.4,0,3.8-2,5c0,0,0.7,0.1,1.6,0c0,0,0.2,0.9,0.6,1.9
			c0.4-1,0.6-1.9,0.6-1.9c0.9,0.2,1.6,0,1.6,0C27.6,313.3,27.7,309.9,27.7,309.5"/>
	</g>
	<g>
		<path class="st0" d="M62,328.2l0.6-0.8l-0.8-1l-0.8,1l0.6,0.8c0,0.4,0,3.8-2,5c0,0,0.7,0.1,1.6,0c0,0,0.2,0.9,0.6,1.9
			c0.4-1,0.6-1.9,0.6-1.9c0.9,0.2,1.6,0,1.6,0C61.9,332,62,328.6,62,328.2"/>
	</g>
	<g>
		<path class="st0" d="M62,345.5l0.6-0.8l-0.8-1l-0.8,1l0.6,0.8c0,0.4,0,3.8-2,5c0,0,0.7,0.1,1.6,0c0,0,0.2,0.9,0.6,1.9
			c0.4-1,0.6-1.9,0.6-1.9c0.9,0.2,1.6,0,1.6,0C61.9,349.3,62,345.9,62,345.5"/>
	</g>
	<g>
		<path class="st0" d="M66.7,336.9l0.6-0.8l-0.8-1l-0.8,1l0.6,0.8c0,0.4,0,3.8-2,5c0,0,0.7,0.1,1.6,0c0,0,0.2,0.9,0.6,1.9
			c0.4-1,0.6-1.9,0.6-1.9c0.9,0.2,1.6,0,1.6,0C66.7,340.6,66.7,337.2,66.7,336.9"/>
	</g>
	<g>
		<path class="st0" d="M57.2,336.9l0.6-0.8l-0.8-1l-0.8,1l0.6,0.8c0,0.4,0,3.8-2,5c0,0,0.7,0.1,1.6,0c0,0,0.2,0.9,0.6,1.9
			c0.4-1,0.6-1.9,0.6-1.9c0.9,0.2,1.6,0,1.6,0C57.2,340.6,57.2,337.2,57.2,336.9"/>
	</g>
	<g>
		<path class="st0" d="M66.7,354.1l0.6-0.8l-0.8-1l-0.8,1l0.6,0.8c0,0.4,0,3.8-2,5c0,0,0.7,0.1,1.6,0c0,0,0.2,0.9,0.6,1.9
			c0.4-1,0.6-1.9,0.6-1.9c0.9,0.2,1.6,0,1.6,0C66.7,357.9,66.7,354.5,66.7,354.1"/>
	</g>
	<g>
		<path class="st0" d="M57.2,354.1l0.6-0.8l-0.8-1l-0.8,1l0.6,0.8c0,0.4,0,3.8-2,5c0,0,0.7,0.1,1.6,0c0,0,0.2,0.9,0.6,1.9
			c0.4-1,0.6-1.9,0.6-1.9c0.9,0.2,1.6,0,1.6,0C57.2,357.9,57.2,354.5,57.2,354.1"/>
	</g>
	<g>
		<path class="st0" d="M62,288.9l0.6-0.8l-0.8-1l-0.8,1l0.6,0.8c0,0.4,0,3.8-2,5c0,0,0.7,0.1,1.6,0c0,0,0.2,0.9,0.6,1.9
			c0.4-1,0.6-1.9,0.6-1.9c0.9,0.2,1.6,0,1.6,0C61.9,292.6,62,289.3,62,288.9"/>
	</g>
	<g>
		<path class="st0" d="M66.7,280.2l0.6-0.8l-0.8-1l-0.8,1l0.6,0.8c0,0.4,0,3.8-2,5c0,0,0.7,0.1,1.6,0c0,0,0.2,0.9,0.6,1.9
			c0.4-1,0.6-1.9,0.6-1.9c0.9,0.2,1.6,0,1.6,0C66.7,284,66.7,280.6,66.7,280.2"/>
	</g>
	<g>
		<path class="st0" d="M57.2,280.2l0.6-0.8l-0.8-1l-0.8,1l0.6,0.8c0,0.4,0,3.8-2,5c0,0,0.7,0.1,1.6,0c0,0,0.2,0.9,0.6,1.9
			c0.4-1,0.6-1.9,0.6-1.9c0.9,0.2,1.6,0,1.6,0C57.2,284,57.2,280.6,57.2,280.2"/>
	</g>
	<g>
		<path class="st0" d="M66.7,297.5l0.6-0.8l-0.8-1l-0.8,1l0.6,0.8c0,0.4,0,3.8-2,5c0,0,0.7,0.1,1.6,0c0,0,0.2,0.9,0.6,1.9
			c0.4-1,0.6-1.9,0.6-1.9c0.9,0.2,1.6,0,1.6,0C66.7,301.3,66.7,297.9,66.7,297.5"/>
	</g>
	<g>
		<path class="st0" d="M57.2,297.5l0.6-0.8l-0.8-1l-0.8,1l0.6,0.8c0,0.4,0,3.8-2,5c0,0,0.7,0.1,1.6,0c0,0,0.2,0.9,0.6,1.9
			c0.4-1,0.6-1.9,0.6-1.9c0.9,0.2,1.6,0,1.6,0C57.2,301.3,57.2,297.9,57.2,297.5"/>
	</g>
	<g>
		<path class="st0" d="M46.6,290.4l0.1,0.4l0.2,0.8c0.3,1.5,0.6,1.9,1.4,1.9c0.4,0,0.8-0.2,0.9-0.6l0.2-0.5l0.3-0.2
			c0.3,0,0.4,0.3,0.4,1c0,0.2,0.1,0.6,0.2,1.3c0.1,0.4,0.1,0.8,0.1,1.2l-0.2,0.8c0.1,0.5,0.2,1.2,0.2,1.6c0,0.7-0.1,1.3-0.3,1.6
			c0.1,0.4,0.1,0.6,0.1,1l-0.1,0.9c-0.1,0.6-0.1,0.8-0.1,0.9l0.1,0.4l0.1,0.3l-0.1,0.1l-0.5-0.2l-0.6-0.3l-0.6-0.5
			c-0.5,0.5-0.7,0.5-2,0.9l-0.6,0.2l-0.4,0.2c-0.2,0-0.3-0.4-0.3-1.1c0-0.6,0.1-1.1,0.2-1.5c-0.4-0.1-0.7-0.2-0.9-0.2l-0.4,0.1
			l-0.1,0l-0.1-0.3l0.2-0.6l0.3-0.6l0.6-0.8l0.7-0.4l0.9-0.2c0.6-0.1,0.9-0.4,0.9-0.8c0-0.4-0.3-0.6-0.8-0.8l-1.1-0.4l-1-0.5
			c-0.6-0.4-0.7-0.4-0.9-0.4l-0.4,0.5c0,0.5,0.3,0.8,0.7,0.8l0.3-0.1l0.3-0.1l0.2,0.2l0,0.1l-0.1,0.4c0,0.4-0.3,0.9-0.8,1.6
			l-0.2,0.3c-0.2,0.9-0.7,1.6-1.4,2.1l-0.3,0.2l-0.2,0.4l-0.5,0.6l-0.7,0.6l-0.5,0.5l-0.3,0.5l-0.2,0.1c-0.2,0-0.5-0.2-0.6-0.7
			l-0.4-0.4l-0.5,0.1l-0.4,0.1h-1c-0.5,0-1.1,0.1-1.5,0.3l-0.3,0.1l-0.2-0.2l-0.1-0.2c0-0.5,0.3-1.4,0.8-2.1
			c0.3-0.5,0.4-0.6,0.7-0.8c-0.1-0.5-0.4-0.8-0.7-0.9l-0.5-0.1l-0.1-0.1c0-0.1,0.2-0.3,0.6-0.5c0.5-0.3,1-0.4,1.5-0.4
			c0.4,0,0.9,0.2,1.3,0.6c0.7,0.6,0.9,0.7,1.3,0.7c0.6,0,1.1-0.5,1.1-1.1c0-0.4-0.2-0.8-0.7-1.4c-0.7-1-1-1.5-1-2.2
			c0-0.4,0.1-1,0.3-1.2l0.3-0.4l0.1-0.3l-0.5-0.3c-0.4,0-1.2,0.3-1.9,0.7l-0.5,0.6l0.1,0.2l0.3,0.2l0.1,0.1l-0.1,0.2l-0.5,0.7
			c-0.3,0.4-0.7,0.8-1.1,1.2l-0.3,0.3l-0.2,0.4c-0.2,0.4-0.7,0.9-1.2,1.2l-0.4,0.3l-0.2,0.4l-0.3,0.6l-0.6,0.8l-0.7,0.7
			c-0.2,0.2-0.4,0.7-0.7,1.6c-0.2,0.6-0.4,0.9-0.5,0.9l-0.2-0.2c-0.5-0.6-1-1-1.2-1l-0.3,0.1l-0.7,0.3l-1,0.2
			c-0.7,0.1-1,0.3-1.4,0.8l-0.2,0.2l-0.1-0.3l0-0.2l0.1-0.7c0.1-0.8,0.3-1.3,0.5-1.7l0.4-0.8l0.1-0.4c0-0.6-0.6-1.2-1.4-1.2
			l-0.3-0.2l0.5-0.6c0.5-0.4,1.2-0.7,1.7-0.7c0.3,0,0.7,0.1,1.2,0.3l0.6,0.2l0.6,0.1c0.6,0,1.2-0.6,2-1.8c0.3-0.6,0.5-1,0.5-1.4
			c0-0.7-0.3-1.1-0.8-1.1c-0.4,0-0.8,0.2-1.1,0.5l-0.4,0.8l0,0.3l0,0.1l-0.2,0.4c-0.3,0-0.6-0.4-1.7-1.6c-0.8-0.9-1-1.3-1-2.3
			c-0.9-1.1-1.1-1.6-1.1-2.4l0-0.5c-0.6-0.8-0.8-1.2-0.8-1.8l0.2-0.7c-0.3-0.5-0.4-0.7-0.5-1l-0.1-0.6l-0.4-1l-0.3-0.5
			c0-0.3,0.2-0.4,1.1-0.7l-0.1-0.6l0.1-0.6l0.2-1c0.1-0.4,0.1-0.7,0.1-0.8c0-0.2,0-0.3-0.2-0.8l-0.2-0.6l-0.2-0.4l0.2-0.1
			c0.3,0,1,0.4,1.7,1c1.5,1.3,1.8,1.8,2,3.3l0.1,0.5c0.7,0.5,1.1,1.2,1.1,1.9c0,0.5-0.2,1.2-0.5,1.7l-0.5,0.8l-0.2,0.9
			c0,0.5,0.1,1,0.5,1.6c0.4,0.7,0.8,1,1.2,1c0.7,0,1.3-1.2,1.3-2.6V287l0-0.5l0.1-0.9c0-0.4,0.1-0.7,0.1-0.8l0-0.6l0-0.4l-0.3-0.5
			l-0.6-0.6c-0.9-0.9-1.3-1.8-1.3-2.4c0-0.8,0.6-1.4,1.4-1.4l0.6,0.1v-0.2c0-1.2,0.2-2,0.6-2l0.1,0l0.5,0.4l0.6,0.4l0.2,0.2l0.3-0.7
			l0.4-0.5l0.3-0.4l0.1-0.2l0.2-0.2l0.2,0.4c0.1,0.2,0.1,0.2,0.6,0.6L35,277l0.2,0.5l0.1,0.2l0.5-0.5l0.4-0.2l0.3-0.1l0.1,0.2
			l0.2,0.4c0.3,0.5,0.4,0.7,0.4,1l0,0.3v0.3c0.9,0.3,1.2,0.7,1.2,1.7c0,0.7-0.4,1.4-1,2.3c-0.5,0.5-0.5,0.6-0.5,1
			c0,2,1.4,3.1,3.8,3.1l1.8,0c1.1,0,1.8,0.1,2.9,0.5c1.3,0.4,1.6,0.5,2,0.5l0.3-0.1l0.2-0.2c0-0.4-0.6-0.7-2.8-1.3
			c-4.4-1.2-6.2-3-6.2-5.9c0-2.2,1.9-4,4.3-4c0.8,0,2,0.2,2.6,0.5l1.1,0.4l0.6,0.1c0.4,0,0.6-0.3,0.6-0.9l0.3-0.5
			c0.3,0,0.8,0.4,1.2,1c0.4,0.6,0.7,1.3,0.7,1.7c0,0.6-0.3,1-0.9,1.4c-0.6,0.9-1.3,1.3-2.3,1.3c-0.8,0-1.9-0.4-3.7-1.5
			c-0.6-0.4-0.9-0.5-1.3-0.5c-0.5,0-0.8,0.3-0.8,0.7c0,0.4,0.3,0.6,1.1,0.9c1.1,0.4,1.4,0.6,1.9,1c1.3,0.2,1.9,0.5,2.8,1.1
			c2.3,0.7,3.8,2.3,3.8,4.1c0,1.8-1.2,3-2.9,3C47.4,290.6,47.2,290.6,46.6,290.4"/>
	</g>
	<g>
		<path class="st1" d="M49.2,302l-0.1-0.6l0-0.2l0.1-0.4l0-0.3l-0.2-0.8l-0.3-0.4l-0.3-0.5l-0.1-0.2l0.2-0.2l0.3,0.2l0.3,0.1
			c0.2,0,0.2-0.3,0.2-0.7c0-0.5,0-0.8-0.2-0.9l-0.4-0.5l-0.3-0.3l-0.1-0.2l0.2-0.2l0.6,0.1l0.1,0l0.2-0.2l0-0.1l-0.1-0.6l-0.2-0.6
			l-0.2-0.2l-0.1,0l-0.7,0.1l-0.1,0c-0.9,0-1.8-0.7-2.1-1.6l-0.5-1.7c-0.2-0.5-0.6-1-1.3-1.6l-0.5-0.3l-0.5-0.1l-0.1-0.1l0.3-0.2
			l0.9,0.1c0.3,0,0.8,0.2,1.4,0.4c0.8,0.3,1.3,0.4,1.8,0.4c1.3,0,2.1-0.7,2.1-1.9c0-0.8-0.4-1.7-1.1-2.3l-0.9-0.6l-0.1,0.1l0,0.3v0
			l-0.2,0.2L47,285c-0.5-1-1.3-1.7-2.1-1.7l-0.2,0.1l0.1,0.4l0.2,0.5l0.1,0.2l-0.1,0.1l-0.5-0.2l-0.4-0.4l-0.3-0.5
			c-0.3-0.4-0.5-0.6-1.1-0.9l-0.6-0.3l-0.3-0.1l-0.1,0.1l0.1,0.3L42,283l-0.1,0.2c-0.2,0-0.6-0.4-1-1c-0.3-0.5-0.5-1-0.5-1.5
			c0-1.1,0.8-2,2-2c0.6,0,1.3,0.2,2,0.7l1.2,0.8c0.4,0.3,1.1,0.5,1.5,0.5l0.8-0.1l0.3-0.1l0.1-0.2l-0.1-0.1L48,280l-0.6-0.1
			l-0.7-0.3c-0.7-0.3-1.1-0.5-1.3-0.7c-0.4-0.3-0.7-0.5-0.9-0.5l-0.3-0.3l0.1-0.1l0.3,0.1l1,0.4l1.1,0.4c0.6,0.2,1.4,0.4,1.8,0.4
			c0.5,0,0.9-0.4,0.9-0.9l-0.5-1.2l-0.2-0.1l-0.2,0.2l0,0.2l0,0.3l-0.5,0.6l-0.4-0.1l-1.7-0.6c-1.4-0.5-2.1-0.6-2.8-0.6
			c-2.1,0-3.6,1.4-3.6,3.3c0,2.1,1.5,3.5,5.1,4.7c3.6,1.2,4.1,1.5,4.1,2.5c0,0.5-0.5,1-1.1,1l-0.6-0.1c-0.1,0-0.7-0.2-1.8-0.4
			c-1.1-0.3-2.1-0.4-3.3-0.4c-2.6,0-4,0.5-5.3,1.7l-0.8,0.3l-0.2,0l-0.4,0h0l-0.7,0.5c-0.3,0.4-0.4,0.7-0.4,0.7l-0.3,0.2
			c-0.2,0-0.4-0.2-0.7-0.8l-0.6-0.8l-0.5-0.5l-0.1-0.2l0.1-0.2l0.4-0.7l0.2-0.4c0.2,0,0.2,0.2,0.2,0.8l0.2,0.7l0.3,0.6l0.2,0.1
			c0.3,0,0.6-0.6,0.7-1.3c0.1-0.6,0.1-0.7,0.3-0.7l0.1,0.1l0.2,0.5l0.3,0.4l0.3,0.2l0,0c0.2,0,0.3-0.1,0.3-0.6l0-0.3l-0.1-0.4l0-0.3
			l0.2-0.3l0.2,0.1l0.3,0.3l0.5,0.3l0.4-0.2l-0.2-0.6l-0.2-0.3c-0.2-0.4-0.4-0.6-0.6-0.6l-0.3,0l-0.3,0.1l-0.2,0.1l-0.1-0.1
			c0-0.2,0.2-0.6,0.5-1.1c0.2-0.3,0.4-1,0.4-2.1c0.1-1.4,0.3-2.3,0.5-2.3l0.2,0.4l0,0.4l0,0.3l0.1,0.4c0.2,0,0.5-0.3,0.7-0.9
			l0.1-0.5l0-0.1l-0.5-1l-0.5-0.2l-0.2-0.1V279v-0.3l-0.1-0.3l-0.1-0.3l-0.1-0.3c-0.6,0.3-0.9,0.5-1.1,0.8l-0.4,0.4l-0.1-0.1
			l0.1-0.4l0-0.1c0-0.6-0.3-1.1-0.9-1.5l-0.2,0.2l-0.2,0.3l-0.3,0.4l-0.3,0.5l-0.1,0.3v0l0,0.1l-0.1,0.3l-0.1,0l-0.2-0.3l-0.3-0.3
			l-0.4-0.3l-0.2-0.2l-0.1,0.2l-0.1,0.4l0,0.4l0,0.4l0,0.1l-0.2,0.3l-0.3-0.1l-0.4-0.1c-0.4,0-0.7,0.3-0.7,0.7c0,0.5,0.2,1,0.4,1.4
			l0.3,0.5l0.3,0.2l0.1-0.6l-0.1-0.5l0-0.2l0.2-0.3c0.2,0,0.2,0.2,0.3,0.6l0.2,1l0.2,1.2l0.3,1.1c0.2,0.5,0.4,0.8,0.5,0.9l0.3,0.5
			l-0.1,0.1l-0.2-0.1L32,286l-0.2,0c-0.4,0-0.5,0.4-0.5,2.1c0,1.1,0.2,2.5,0.5,3.2l0.6,1.4l0.1,0.7c0,1.9-2.6,5-5.4,6.4
			c-1,0.5-1.4,1-1.4,2.2l0,0.3c0.4-0.2,0.6-0.3,0.9-0.4c0.8-0.2,0.9-0.3,1.1-0.7l0.1-0.3c0-0.1,0.1-0.2,0.7-0.5l0.4-0.3l0.3-0.3
			l0.1,0.1l0,0.1l-0.3,0.8l0,0.2c0,0.6,0.3,1,0.9,1.3c0.1-0.6,0.2-0.8,0.3-1.1l0.5-0.7c0.2-0.3,0.2-0.6,0.2-1.1l-0.1-0.8l0-0.2
			l0.2-0.2l0.2,0.1l0.1,0.5l0.3,0.2c0.3,0,0.6-0.3,0.9-0.9l0.2-0.7l0-0.4l-0.1-0.4l0-0.1l0.2-0.3l0.1,0l0.2,0.6l0.3,0.3l0.7-0.7
			c0.2-0.3,0.2-0.7,0.2-1.1c0-0.6,0.1-0.7,0.3-0.7l0.1,0.1l0.1,0.3l0.2,0.2l0.6-0.7l0.1-0.2l-0.2-0.4l-0.3-0.6
			c0-0.3,0.1-0.5,0.3-0.9l0.3-0.6c0.3-0.7,0.5-0.8,0.6-0.8l0.2,0.2l-0.1,0.2l-0.1,0.3l0.2,0.2l0.5-0.2c0.1,0,0.3-0.1,0.7-0.3
			l0.9-0.3l0.5-0.1l0.5,0.1l0.6,0.1l0.5-0.4l-0.4-0.8l-0.1-0.2l0-0.1l0.1-0.1c0.2,0,0.6,0.4,1,1c2.3,3.6,3.1,4.5,4.6,4.9
			c1.6,0.5,2,0.8,2,1.8c0,0.5-0.3,1.1-0.8,1.9c-1.1,1.6-1.4,2.3-1.4,3.3l0,0.2l0.3-0.1l0.4-0.2l0.7-0.1l0.4-0.5l0-0.1l-0.1-0.6
			l0-0.1l0.2-0.6l0.1-0.1l0.2,0.2l0.4,0.9C48.4,301.6,48.6,301.8,49.2,302"/>
	</g>
	<g>
		<path class="st1" d="M27.9,282.8l-0.3,0.5l-0.1,0.5c-0.1,0.5-0.1,0.5-0.1,0.6l0.3,0.7l0.6-0.7l0.1-0.6l-0.1-0.6L27.9,282.8z"/>
	</g>
	<g>
		<path class="st1" d="M25.7,279l0.4,0.4c0.6,0.6,0.9,1.6,0.9,3c0,0.3,0,0.5-0.1,1.4c0,0.4-0.1,0.8-0.1,1.1c0,3.3,1.1,5.8,2.5,5.8
			c0.4,0,0.7-0.2,1.1-0.8l0.2-0.2l0.1,0.2l0.1,0.6l0,0.5l0.1,0.6l0.1,0.5l0,0.1l-0.2,0.2l-0.5,0.1l-0.7,0.3
			c-0.4,0.2-0.6,0.4-0.7,0.5l-0.3,0.6l-0.2,0.1c-0.2,0-0.4-0.3-0.7-0.7c-0.2-0.4-0.4-0.7-0.4-0.9l0.2-0.1h0.1l0.3,0l0.2,0l0.2,0
			l0.2-0.2l-0.1-0.2l-1.2-0.5c-0.4-0.2-0.7-0.5-0.9-0.9c-0.3-0.6-0.5-1-0.5-1.2l0.2-0.3l0.2,0.1l0.3,0.1l0.2-0.2l-0.2-0.3
			c-1-0.7-1.6-1.5-1.6-2.3l0.2-0.3l0.2,0l0.3,0.1h0l0.2-0.2l-0.2-0.2l-0.4-0.2l-0.4-0.4c0-0.1-0.2-0.3-0.5-0.8l-0.4-0.7l-0.2-0.4
			l-0.2-0.2l0.8-0.2c0.4,0,0.6,0.2,0.9,0.9c0.2,0.4,0.3,0.7,0.4,0.7l0.1-0.3l-0.1-0.8l-0.1-0.6l-0.1-0.4l-0.3-0.2l-0.2-0.3l-0.2-0.6
			l0.1-0.5c0.3-1,0.3-1.4,0.3-1.7l0-0.2L25.7,279z"/>
	</g>
	<g>
		<path class="st1" d="M28.8,298.1l-0.8-0.2l-0.5-0.2c-0.4-0.2-0.8-0.3-1-0.3c-0.4,0-0.7,0.1-1.1,0.4l0.2,0.2l0.5,0.4l0.5,0.4
			l0.4,0.2C27.7,299,28.1,298.7,28.8,298.1"/>
	</g>
	<g>
		<path class="st1" d="M39,302.9l0.5-0.7c0.7-0.6,1.1-1.1,1.1-1.5v-0.3v-0.3l0.2-0.5l0.2,0.1l0.1,0.3l0.2,0.1l0.4-0.3l0.3-0.4
			l0.2-0.5l-0.1-0.3l-0.2-0.4l-0.1-0.4l0.2-0.3l0.2,0.1l0.2,0.3l0.2,0.1l0.3-0.2l0.2-0.4l0.1-0.2l-0.2-0.2l-0.3-0.2
			c-0.5-0.2-0.8-0.9-0.8-1.7l0.1-0.3l0.2-0.4l0.1-0.4l-0.3-0.8l-0.3-0.6c-0.2-0.4-0.2-0.5-0.4-0.5l-0.1,0l-0.2,0.1l-0.3,0.2
			l-0.3,0.4l-0.4,0.2l-0.4,1c0,0.7,0.1,0.9,1,2.4c0.4,0.6,0.5,1.1,0.5,1.5c0,1.1-1,1.9-2.9,2.3l-1.2,0.3c-0.9,0.2-1.4,0.8-1.6,1.9
			c0.4-0.2,0.5-0.2,1.2-0.2l0.4,0h0.1l0.6-0.3l0.9-0.7l0.4-0.2l0.3-0.2l0.1,0l0.1,0.1l-0.3,0.5c-0.3,0.3-0.4,0.6-0.4,1L39,302.9z"/>
	</g>
	<g>
		<path class="st1" d="M35.7,298.8l0.8,0.7l0.5,0.4l0.4-0.1l0.2,0c0.4-0.1,0.6-0.2,0.6-0.3l-0.1-0.2l-0.3-0.3l-0.3-0.3l-0.9-0.3
			C36.3,298.5,36.1,298.5,35.7,298.8"/>
	</g>
	<g>
		<path class="st1" d="M44.3,300.2l0.2,0l0.2,0l0.2,0l0.1,0c0.6,0,1.2-0.5,1.2-1l-0.5-0.3C45,298.9,44.6,299.3,44.3,300.2"/>
	</g>
	<g>
		<path class="st5" d="M34.4,281.9l0.3,0.4c0.1,0,0.2-0.3,0.5-0.8c0.4-0.6,0.7-1.3,0.7-1.6l-0.1-0.2l0,0l-0.3,0.3
			c-0.2,0.2-0.4,0.3-0.9,0.5l-0.4,0.4l0,0.2l0.1,0.4L34.4,281.9z"/>
	</g>
	<g>
		<path class="st5" d="M32.8,280.5l0.4,0.2l0.2,0.3l0,0.2l0,0.6c0,0.5-0.4,0.5-0.5,0.5l-0.3-0.3l-0.6-0.7c-0.2-0.2-0.3-0.7-0.4-1.2
			V280l0.2-0.2l0.3,0.1L32.8,280.5z"/>
	</g>
	<g>
		<path class="st5" d="M33.8,283.3h-0.1l-0.3,0l-0.3-0.2l-0.4-0.1l-0.4,0.3c0,0.2,0.1,0.6,0.3,1.2l0.3,0.8c0.3,0.7,0.6,1.1,1,1.1
			c0.3,0,0.4-0.3,0.6-0.9c0.5-1.3,0.8-1.5,0.8-2l-0.4-0.4l-0.3-0.1l-0.4,0.3L33.8,283.3z"/>
	</g>
	<g>
		<polygon class="st1" points="34.2,284 33.8,284.1 33.4,284.1 33.3,284.1 33.3,284.3 33.4,284.9 33.5,285.5 33.9,285.9 34.3,285.4 
			34.4,284.8 34.5,284.2 34.4,284 34.2,284 		"/>
	</g>
	<g>
		<path class="st0" d="M96,290.4l0.1,0.4l0.2,0.8c0.3,1.5,0.6,1.9,1.3,1.9c0.4,0,0.8-0.2,0.9-0.6l0.2-0.5l0.2-0.2
			c0.3,0,0.4,0.3,0.5,1c0,0.2,0.1,0.7,0.2,1.3c0.1,0.4,0.1,0.9,0.1,1.2l-0.2,0.8l0.1,0.3c0.1,0.5,0.1,0.7,0.1,1
			c0,1.1-0.1,1.5-0.3,1.9c0.1,0.4,0.1,0.6,0.1,0.9c0,0.2,0,0.5-0.1,0.9l-0.1,0.8l0,0.5l0.1,0.3l-0.1,0.1l-0.5-0.2l-0.6-0.3l-0.6-0.5
			c-0.5,0.5-0.6,0.5-1.2,0.7c-0.9,0.2-1.2,0.4-1.4,0.5l-0.4,0.2c-0.2,0-0.3-0.4-0.3-1c0-0.8,0.1-1.3,0.2-1.6c-0.5-0.2-0.8-0.2-1-0.2
			l-0.4,0.1l-0.1,0l-0.1-0.3c0-0.3,0.2-0.8,0.4-1.2c0.3-0.6,0.9-1.1,1.3-1.2l1-0.2c0.6-0.1,0.9-0.4,0.9-0.8c0-0.4-0.2-0.6-0.8-0.8
			l-1.1-0.4l-1.1-0.5l-0.6-0.3l-0.3-0.1l-0.4,0.5c0,0.4,0.3,0.8,0.8,0.8l0.3-0.1l0.2-0.1l0.2,0.3c0,0.5-0.3,1.3-0.6,1.7l-0.3,0.4
			l-0.2,0.3c-0.1,0.7-0.8,1.7-1.4,2.1l-0.3,0.2l-0.2,0.4l-0.5,0.6l-0.7,0.6l-0.5,0.5l-0.3,0.5l-0.2,0.1c-0.2,0-0.5-0.3-0.6-0.7
			l-0.4-0.4l-0.5,0.1l-0.4,0.1h-0.9c-0.5,0-1.2,0.1-1.5,0.3l-0.3,0.1l-0.2-0.4c0-0.8,0.6-2.1,1.5-2.9c-0.1-0.5-0.4-0.8-0.7-0.9
			l-0.5-0.1l-0.1-0.1c0-0.2,0.2-0.3,0.6-0.5c0.8-0.4,1-0.4,1.4-0.4c0.5,0,0.9,0.2,1.4,0.6c0.7,0.6,0.9,0.7,1.3,0.7
			c0.6,0,1.1-0.5,1.1-1.1c0-0.4-0.2-0.8-0.7-1.4c-0.7-0.9-1-1.5-1-2.3c0-0.5,0.1-0.8,0.6-1.5l0.1-0.3l-0.5-0.3
			c-0.3,0-0.6,0.1-1.1,0.3c-0.8,0.4-1.3,0.7-1.3,0.9l0.1,0.2l0.3,0.2l0.1,0.1l-0.1,0.2c0,0.1-0.2,0.3-0.5,0.7
			c-0.4,0.5-0.7,0.9-1.1,1.2l-0.3,0.3l-0.2,0.4c-0.2,0.3-0.7,0.9-1.1,1.2l-0.4,0.3l-0.2,0.4c-0.3,0.5-0.7,1.1-1,1.4l-0.7,0.7
			c-0.2,0.2-0.5,0.8-0.8,1.6c-0.2,0.6-0.4,0.9-0.5,0.9l-0.2-0.2c-0.5-0.6-1-1-1.2-1l-0.3,0.1l-0.7,0.3l-1,0.2
			c-0.8,0.2-1.1,0.3-1.5,0.8l-0.2,0.2l-0.2-0.3l0-0.2c0,0,0.1-0.3,0.1-0.7c0.1-0.8,0.3-1.4,0.5-1.7l0.5-0.8l0.1-0.4
			c0-0.6-0.6-1.1-1.4-1.2l-0.3-0.2l0.5-0.6c0.6-0.4,1.2-0.7,1.6-0.7c0.3,0,0.7,0.1,1.2,0.3l0.6,0.2l0.6,0.1c0.6,0,1.2-0.6,1.9-1.8
			c0.3-0.6,0.5-1,0.5-1.4c0-0.7-0.3-1.1-0.8-1.1c-0.4,0-0.8,0.2-1.1,0.5l-0.4,0.8l0,0.3l0,0.1l-0.2,0.3c-0.2,0-0.4-0.2-0.9-0.7
			l-0.7-0.9c-0.8-0.9-1-1.3-1-2.3c-0.9-1.1-1.1-1.8-1.1-2.4l0-0.5c-0.6-0.8-0.8-1.1-0.8-1.8l0.2-0.7c-0.3-0.5-0.4-0.7-0.5-1
			l-0.1-0.6l-0.4-1l-0.3-0.5c0-0.3,0.3-0.5,0.9-0.6l0.2-0.1l-0.1-0.6l0.1-0.6l0.2-1l0.1-0.9c0-0.2,0-0.4-0.2-0.8l-0.3-0.6l-0.2-0.3
			l0.2-0.2l0.3,0.1c0.9,0.5,1.9,1.3,2.6,2c0.6,0.7,0.8,1.2,0.9,2.7c0.8,0.6,1.1,1.1,1.1,2c0,0.5-0.2,1-0.5,1.6
			c-0.3,0.5-0.5,0.8-0.5,0.8l-0.2,0.9c0,0.5,0.1,0.9,0.5,1.6c0.4,0.7,0.7,1,1.2,1c0.7,0,1.3-1.2,1.3-2.5l0-0.3v-0.7l0.1-0.6l0-0.8
			l0.1-0.6l0-0.4c0-0.3-0.1-0.3-0.9-1.2c-0.9-1-1.3-1.8-1.3-2.5c0-0.7,0.6-1.3,1.3-1.3L80,279v-0.3l0-0.6l0.2-0.7
			c0.1-0.5,0.2-0.6,0.4-0.6l0.1,0l0.5,0.4l0.6,0.4l0.2,0.2l0.3-0.7l0.4-0.5l0.3-0.4l0.2-0.2l0.2-0.2l0.2,0.4l0.2,0.3l0.3,0.3
			c0.3,0.2,0.5,0.6,0.6,1.1l0.5-0.5l0.4-0.2l0.3-0.1l0.1,0.2l0.2,0.4c0.3,0.5,0.4,0.6,0.4,1l0,0.2v0.3c0.9,0.2,1.2,0.7,1.2,1.7
			c0,0.7-0.3,1.4-1,2.3c-0.5,0.5-0.5,0.7-0.5,1.1c0,1.9,1.4,3,3.8,3l1.7,0c1.1,0,1.8,0.1,2.9,0.5c1.2,0.4,1.6,0.5,2,0.5l0.5-0.3
			c0-0.4-0.6-0.7-2.8-1.3c-4.4-1.2-6.2-3-6.2-5.9c0-2.2,1.9-4,4.3-4c0.8,0,2,0.2,2.6,0.5l1.1,0.4l0.6,0.1c0.4,0,0.5-0.2,0.6-0.9
			l0.3-0.5c0.3,0,0.8,0.4,1.2,1c0.4,0.6,0.7,1.3,0.7,1.8c0,0.6-0.3,1-0.9,1.4c-0.6,0.9-1.3,1.3-2.3,1.3c-0.8,0-2-0.5-3.7-1.5
			c-0.6-0.4-0.9-0.5-1.3-0.5c-0.5,0-0.8,0.3-0.8,0.7c0,0.4,0.3,0.6,1.1,0.9c1.3,0.4,1.5,0.6,1.9,1c1.4,0.2,1.9,0.5,2.8,1.1
			c2.4,0.8,3.8,2.3,3.8,4.2c0,1.7-1.2,3-2.8,3C96.8,290.6,96.6,290.6,96,290.4"/>
	</g>
	<g>
		<path class="st1" d="M98.6,302l-0.1-0.5l0-0.4c0.1-0.5,0.1-0.7,0.1-1l-0.2-0.5l-0.3-0.4l-0.3-0.7l0.1-0.2l0.1,0l0.2,0.1l0.3,0.1
			c0.2,0,0.2-0.2,0.2-0.7c0-0.7-0.1-1-0.5-1.3l-0.4-0.3l-0.1-0.2l0.2-0.2l0.3,0l0.3,0.1l0.1,0l0.1-0.2l0-0.1l-0.1-0.6
			c-0.1-0.6-0.2-0.8-0.4-0.8l-0.1,0l-0.7,0.1l-0.1,0c-0.8,0-1.8-0.8-2-1.6L95,291c-0.2-0.5-0.6-1.1-1.3-1.6l-0.6-0.3l-0.5-0.1
			l-0.2-0.1l0.3-0.2c0.7,0,1.4,0.1,2.3,0.5c0.9,0.3,1.3,0.4,1.8,0.4c1.3,0,2.1-0.7,2.1-1.8c0-0.6-0.2-1.3-0.5-1.8
			c-0.3-0.4-0.7-0.8-1.2-1.2l-0.2-0.1l-0.1,0.1l0,0.3v0l-0.2,0.2l-0.5-0.5c-0.5-1-1.3-1.7-2.1-1.7l-0.3,0.2l0.1,0.4l0.2,0.5l0.1,0.2
			l-0.1,0.1l-0.4-0.2l-0.4-0.4l-0.3-0.5c-0.3-0.4-0.6-0.7-1.1-0.9l-0.7-0.3l-0.3-0.1l-0.1,0.1l0.1,0.3l0.2,0.5l-0.1,0.2
			c-0.2,0-0.5-0.3-1-1c-0.3-0.5-0.5-1-0.5-1.5c0-1.1,0.9-2,2-2c0.6,0,1.3,0.2,2,0.7l1.3,0.8c0.5,0.3,1.1,0.5,1.4,0.5
			c0.2,0,0.3,0,0.7-0.1l0.3-0.1l0.1-0.2l-0.2-0.2c-0.6-0.1-1.8-0.5-2.6-1c-0.5-0.3-0.8-0.5-0.9-0.5l-0.4-0.3l0.1-0.1l0.2,0l1.2,0.4
			L96,279c0.5,0.2,1.4,0.4,1.8,0.4c0.5,0,0.9-0.3,0.9-0.8l-0.2-0.7l-0.5-0.6l-0.2,0.3l0,0.1l0,0.3l-0.5,0.6l-0.4-0.1l-1.7-0.6
			c-1.5-0.5-2.1-0.6-2.8-0.6c-2.1,0-3.7,1.4-3.7,3.3c0,2.1,1.5,3.4,5.2,4.7c3.6,1.3,4.1,1.5,4.1,2.5c0,0.5-0.5,1-1.2,1l-0.6-0.1
			c-0.2,0-0.8-0.2-1.8-0.4c-1.1-0.3-2-0.4-3.3-0.4c-2.6,0-3.9,0.4-5.3,1.7l-0.8,0.3l-0.2,0l-0.4,0l-0.7,0.5l-0.4,0.7l-0.3,0.2
			c-0.3,0-0.4-0.2-0.7-0.8l-0.5-0.8l-0.6-0.5l-0.1-0.2l0.1-0.3l0.2-0.4l0.1-0.3l0-0.2l0.2-0.1c0.2,0,0.2,0.1,0.2,0.8l0.2,0.7
			l0.3,0.6l0.2,0.1c0.3,0,0.6-0.6,0.7-1.3c0.1-0.6,0.1-0.7,0.3-0.7c0.1,0,0.2,0.1,0.4,0.5l0.3,0.4l0.3,0.2h0c0.2,0,0.3-0.1,0.3-0.6
			l0-0.3l-0.1-0.4l0-0.3l0.2-0.3l0.2,0.1l0.3,0.3l0.5,0.3l0.4-0.3l-0.3-0.6l-0.2-0.3c-0.2-0.4-0.3-0.6-0.6-0.6l-0.3,0l-0.3,0.1
			l-0.2,0.1l-0.1-0.1c0-0.2,0.2-0.6,0.4-1.1c0.2-0.3,0.3-1,0.5-2.1l0.1-1.2c0.1-0.8,0.2-1,0.3-1l0.1,0.1l0.1,0.4v0.3l0.1,0.7
			l0.4-0.4l0.3-0.5l0.1-0.7c0-0.6-0.3-0.9-1.1-1.1l-0.2-0.1l0-0.2v-0.4l-0.1-0.3l-0.1-0.3l-0.1-0.3l-0.2,0.1
			c-0.5,0.3-0.7,0.4-0.9,0.7l-0.4,0.4l-0.1-0.1l0.1-0.5l0-0.1c0-0.6-0.3-1.1-0.9-1.6L83,277l-0.2,0.3l-0.3,0.4l-0.3,0.8v0.1l0,0.1
			l-0.1,0.3l-0.1,0l-0.2-0.3l-0.3-0.3l-0.5-0.3l-0.2-0.2c-0.3,0.6-0.3,0.6-0.3,1.3v0.2l-0.2,0.4l-0.3-0.1l-0.4-0.1
			c-0.4,0-0.7,0.3-0.7,0.8c0,0.5,0.1,0.8,0.4,1.3l0.6,0.6l0.1-0.6l-0.1-0.5l0-0.2l0.2-0.3c0.1,0,0.2,0.2,0.3,0.6l0.2,1l0.2,1.2
			l0.3,1.1c0.2,0.5,0.4,0.8,0.4,0.9l0.3,0.5l-0.1,0.1l-0.2-0.1l-0.3-0.1l-0.2,0c-0.4,0-0.5,0.4-0.5,2.1c0,1.1,0.2,2.6,0.5,3.3
			l0.6,1.4l0.1,0.7c0,1.9-2.6,5-5.4,6.4c-1.1,0.5-1.4,1.1-1.5,2.5c0.5-0.2,0.6-0.3,0.9-0.4c0.8-0.2,0.9-0.3,1.1-0.7l0.1-0.3
			c0-0.1,0.1-0.2,0.7-0.5l0.4-0.3l0.3-0.3l0.1,0.1l0,0l-0.3,0.8l0,0.2c0,0.6,0.3,1,0.9,1.3l0.1-0.3c0.1-0.4,0.2-0.7,0.3-0.8l0.5-0.7
			c0.2-0.3,0.2-0.4,0.2-1.1l0-0.8l0-0.2l0.2-0.2l0.2,0.1l0.1,0.5l0.3,0.2c0.3,0,0.6-0.3,0.9-0.9l0.2-0.6l-0.1-0.8l0-0.2l0.2-0.2
			l0.1,0l0.2,0.6l0.3,0.3c0.4,0,0.8-0.8,0.9-1.7c0-0.6,0.1-0.8,0.3-0.8l0.1,0.1l0.1,0.3l0.2,0.2l0.4-0.3l0.2-0.3l0.1-0.3l-0.2-0.3
			l-0.3-0.6c0-0.4,0.2-0.8,0.6-1.6c0.4-0.7,0.5-0.8,0.6-0.8l0.2,0.2l-0.1,0.2l-0.1,0.3l0.2,0.2l0.5-0.2l0.7-0.3
			c0.5-0.2,0.8-0.3,0.9-0.3l0.5-0.1L89,291l0.6,0.1l0.4-0.4l-0.2-0.5l-0.2-0.4l-0.2-0.2l0-0.1l0.1-0.1c0.2,0,0.6,0.4,1,1
			c2.1,3.4,3.1,4.5,4.6,4.9c1.6,0.5,2,0.8,2,1.8c0,0.5-0.3,1.1-0.8,1.9c-1.1,1.5-1.4,2.3-1.4,3.3l0,0.2l0.3-0.1l0.4-0.2l0.7-0.1
			l0.4-0.6l0-0.1l0-0.6l0-0.1l0.4-0.6l0.2,0.2l0.4,0.9C97.8,301.6,98.1,301.8,98.6,302"/>
	</g>
	<g>
		<path class="st1" d="M76.9,283.9l0,0.4l0,0.3c0,0.4,0.1,0.6,0.2,0.6l0.6-0.7l0.1-0.7l-0.1-0.5l-0.4-0.4
			C77,282.8,76.9,283.1,76.9,283.9"/>
	</g>
	<g>
		<path class="st1" d="M75.1,279l0.4,0.4c0.5,0.5,0.9,1.6,0.9,2.7l0,0.4l-0.1,1.2l0,1c0,3.5,1,5.8,2.5,5.8c0.4,0,0.8-0.3,1.1-0.9
			l0.2-0.2l0.1,0.2l0.1,0.6l0,0.5l0.1,0.6l0.1,0.5c0,0.3-0.1,0.3-0.7,0.4l-0.7,0.3c-0.4,0.3-0.7,0.4-0.7,0.5l-0.3,0.6l-0.2,0.1
			c-0.2,0-0.4-0.2-0.7-0.7c-0.3-0.5-0.4-0.7-0.4-0.9l0.2-0.1l0.1,0l0.3,0l0.2,0l0.2,0l0.2-0.2l-0.1-0.1l-1.2-0.5
			c-0.3-0.1-0.6-0.4-0.9-0.9c-0.3-0.5-0.5-0.9-0.5-1.2l0.2-0.3l0.2,0.1l0.3,0.1l0.1-0.1l0.1-0.1l-0.2-0.3c-1-0.7-1.6-1.6-1.6-2.3
			l0.1-0.3l0.2,0l0.4,0.1l0.2-0.2l-0.2-0.2c-0.7-0.3-0.8-0.5-1.2-1.5c-0.3-0.7-0.5-1-0.8-1.4l0.8-0.2c0.4,0,0.6,0.2,0.8,0.9
			c0.2,0.4,0.3,0.7,0.4,0.7l0.1-0.3l-0.1-0.8l-0.1-0.6l-0.1-0.4l-0.3-0.2l-0.4-0.9l0.1-0.5l0.2-0.6c0.1-0.4,0.2-0.9,0.2-1.1v-0.2
			L75.1,279z"/>
	</g>
	<g>
		<path class="st1" d="M78.2,298.1c-0.6-0.1-0.6-0.1-1.3-0.4c-0.4-0.2-0.7-0.3-1-0.3c-0.4,0-0.7,0.1-1.1,0.4l0.2,0.2l0.5,0.4
			l0.5,0.4l0.4,0.2C77.1,299,77.5,298.7,78.2,298.1"/>
	</g>
	<g>
		<path class="st1" d="M88.4,302.9l0.5-0.7c0.7-0.6,1.1-1.1,1.1-1.5v-0.3v-0.3l0.2-0.5l0.2,0.1l0.1,0.3l0.2,0.1
			c0.2,0,0.3-0.1,0.7-0.7l0.2-0.5l-0.1-0.3l-0.2-0.4l-0.1-0.4l0.2-0.3l0.2,0.1l0.2,0.3l0.1,0.1l0.3-0.2l0.2-0.4l0.1-0.2l-0.2-0.2
			l-0.4-0.2c-0.4-0.2-0.8-0.9-0.8-1.6l0.1-0.3l0.2-0.4l0.1-0.4l-0.3-0.8l-0.3-0.6c-0.2-0.4-0.2-0.5-0.4-0.5l-0.3,0.1l-0.3,0.2
			l-0.4,0.4l-0.4,0.2c-0.2,0.1-0.4,0.6-0.4,1c0,0.6,0.1,0.9,1,2.4c0.4,0.7,0.5,1.1,0.5,1.5c0,1.1-1.1,2-2.9,2.3
			c-2.1,0.4-2.6,0.8-2.9,2.2c0.4-0.2,0.5-0.2,1.2-0.2l0.4,0h0.1l0.6-0.3l0.9-0.7l0.4-0.2l0.3-0.2l0.1,0l0.1,0.1l-0.3,0.4l-0.4,0.9
			L88.4,302.9z"/>
	</g>
	<g>
		<path class="st1" d="M85.1,298.8l0.8,0.7l0.5,0.4l0.4-0.1l0.2,0c0.4-0.1,0.6-0.2,0.6-0.3l-0.1-0.2l-0.3-0.3l-0.3-0.3l-0.8-0.3
			C85.8,298.5,85.5,298.6,85.1,298.8"/>
	</g>
	<g>
		<path class="st1" d="M93.7,300.2l0.2,0l0.3,0l0.2,0l0.1,0l0.5-0.1l0.5-0.6l0.1-0.3l-0.5-0.3C94.4,298.9,94,299.3,93.7,300.2"/>
	</g>
	<g>
		<path class="st5" d="M83.8,281.9l0.3,0.4c0.1,0,0.3-0.4,0.6-0.8c0.4-0.6,0.7-1.2,0.7-1.5l-0.1-0.2l0,0l-0.3,0.3l-0.9,0.5l-0.4,0.4
			l0,0.2l0.2,0.5L83.8,281.9z"/>
	</g>
	<g>
		<path class="st5" d="M81.5,280l-0.3-0.1L81,280l0,0.1l0.1,0.5c0.1,0.4,0.3,0.7,0.3,0.7l0.4,0.7l0.6,0.4h0l0.1-0.1l0.1-0.5l0.1-0.5
			l0-0.1l-0.2-0.3l-0.5-0.2L81.5,280z"/>
	</g>
	<g>
		<path class="st5" d="M83.2,283.3h-0.1l-0.3,0l-0.3-0.2l-0.4-0.1l-0.4,0.4c0,0.2,0.1,0.6,0.3,1.1l0.3,0.8c0.3,0.7,0.6,1.1,1,1.1
			c0.3,0,0.6-0.3,0.8-0.8l0.3-1.2l0.5-0.8l-0.6-0.6l-0.1,0l-0.4,0.3L83.2,283.3z"/>
	</g>
	<g>
		<polygon class="st1" points="83.6,284 83.2,284.1 82.9,284.1 82.7,284.1 82.7,284.3 82.8,284.9 82.9,285.5 83.2,285.9 83.7,285.4 
			83.8,284.8 83.9,284.2 83.8,284 83.6,284 		"/>
	</g>
	<g>
		<path class="st0" d="M47.1,340.4c0.2,0.6,0.3,0.9,0.3,1.2l0.1,1.1c0,1.1,0.4,1.7,1.1,1.7l0.6-0.2l0.3-0.3l0.1,0l0.3,0.3l0,0.4
			c0,0.2,0,0.6,0.1,1.2L50,347c0,0.6,0,0.8-0.2,1.3c0.2,0.5,0.3,1.1,0.3,1.6c0,0.6-0.1,1-0.3,1.3c0.1,0.5,0.1,0.6,0.1,0.9
			c0,0.3,0,0.6-0.1,1c-0.1,0.6-0.1,1-0.1,1.3v0.1l-0.2,0.2l-0.3-0.2l-0.4-0.3c-0.2,0-0.2,0.1-0.5,0.9c-0.1,0.2-0.3,0.6-0.6,1
			l-0.5,0.8l-0.2,0.6l-0.2,0.1l0,0c-0.4,0-0.9-0.9-1.4-2.7c-0.1-0.5-0.3-0.7-0.6-0.7l-0.5,0.3l-0.2,0.4l-0.1,0.1
			c-0.2,0-0.5-0.4-0.7-0.9c-0.2-0.4-0.3-0.8-0.3-1.2c0-0.8,0.6-1.4,2.5-2.5c0.8-0.5,1.1-1,1.1-2.1c0-0.8-0.2-1.3-1-1.8
			c-0.6-0.4-0.9-0.6-1.2-0.6l-0.5,0.4l0.5,0.5c0.4,0.1,0.6,0.3,0.6,0.5c0,0.2-0.2,0.5-0.5,1c-0.3,0.5-0.4,0.6-0.8,0.9
			c-0.1,0.7-0.5,1.2-1.3,1.7c-0.2,0.5-0.3,0.6-0.5,1l-0.6,0.7l-0.4,0.8c-0.1,0.4-0.1,0.5-0.3,0.5c-0.2,0-0.6-0.4-1.1-0.9l-0.3-0.9
			c-0.3,0.2-0.4,0.2-0.9,0.3l-0.7,0.2c-0.4,0.2-0.5,0.3-0.6,0.3l-0.2-0.2l0-0.6c0-0.8,0.3-1.7,0.8-2.4c-0.5-0.4-0.9-0.6-1.3-0.7
			l-0.2-0.1l0.3-0.5l0.5-0.5c0.4-0.3,1-0.6,1.5-0.6c0.3,0,0.9,0.1,1.5,0.4l0.6,0.1l0.5-0.5c0-0.5-0.2-1.2-0.8-2.4
			c-0.4-0.8-0.5-1.4-0.5-1.7c0-0.9,0.4-1.9,1-2.1l-0.6-0.2l-0.8,0.3l-0.6,0.6l0.2,0.2l0.2,0.4c0,0.7-0.5,1.5-1.3,2.1
			c-0.2,0.9-0.6,1.5-1.4,1.9c-0.1,0.5-0.2,0.7-0.6,1.2c-0.7,1-0.9,1.3-1,1.8l-0.2,0.4l-0.6-0.5l-0.4-0.5c-0.1-0.2-0.2-0.3-0.3-0.8
			l-0.4,0.1l-0.4,0l-0.3,0c-0.6,0-1.2,0.1-1.5,0.3l-0.2,0.1c-0.2,0-0.3-0.4-0.3-0.8c0-1,0.3-1.7,0.9-2.6l-0.5-0.5l-0.2-0.2l-0.3-0.2
			l-0.2-0.2c0-0.1,0.4-0.5,0.8-0.8c0.5-0.3,0.9-0.5,1.3-0.5c0.4,0,0.7,0.1,1.2,0.6l0.8,0.5l0.4-0.2l0.1-0.4c0-0.5-0.6-1.4-1.3-1.8
			c-0.5-0.3-1-0.5-1.6-0.5c-0.7,0-1.4,0.4-1.7,1l-0.3,0.6l-0.3,0.2c-0.2,0-0.3-0.1-0.9-0.8l-0.7-0.8l-0.4-0.7l-0.1-0.3l-0.3-0.2
			c-0.5-0.4-0.9-1.1-1.1-2.2l-0.1-0.3c-0.6-0.8-1-1.8-1-2.6l0.1-0.4c-0.4-0.4-0.4-0.5-0.7-1.5c-0.2-0.7-0.3-1-0.6-1.4l-0.1-0.2
			l0.6-0.3l0.5-0.1l0.5,0l0-0.7c0-0.4,0-0.7,0.1-1.2l0.1-0.6l-0.1-0.5l-0.1-0.4l-0.1-0.2l0.2-0.1l0.3,0.1c0.5,0.2,0.8,0.5,1.1,0.7
			c0.9,0.7,1.6,1.8,1.6,2.5l0,0.2l-0.1,0.4l0.2,0.4l0.3,0.4l0.4,1c0,0.2-0.1,0.4-0.5,1c-0.3,0.5-0.5,0.8-0.5,1.2
			c0,0.5,0.2,1.1,0.5,1.7c0.3,0.6,0.7,0.9,1,0.9c0.6,0,0.9-0.5,0.9-1.9c0-0.7,0.1-1.4,0.2-2l0-0.4l-0.3-0.5l-0.8-0.9
			c-0.8-0.9-1-1.3-1-2c0-0.7,0.5-1.2,1.2-1.2l0.3,0v-0.2l0.1-0.7c0.2-0.6,0.4-1,0.5-1l0.3,0.1l0.5,0.2l0.5,0.3
			c0.1-0.5,0.2-0.7,0.4-0.9c0.3-0.4,0.7-0.8,0.9-0.8l0.4,0.3l0.5,0.5l0.3,0.5l0.1,0.2l0.3-0.2l0.4-0.2l0.5-0.2l0.3-0.1
			c0.1,0,0.1,0.2,0.3,1c0.1,0.6,0.2,0.7,0.2,1.2c0.8,0.1,1.2,0.6,1.2,1.5c0,0.9-0.4,1.7-1.3,2.7l-0.3,0.6c0,2.3,0.8,3.1,3.7,3.4
			c1.8,0.2,2.3,0.3,4.5,1c1.1,0.3,1.8,0.5,2.2,0.5c0.5,0,0.8-0.2,0.8-0.5c0-0.5-0.4-0.6-2.5-1.1c-4.9-1-6.8-2.7-6.8-5.9
			c0-2.3,1.7-4,4-4c1,0,1.9,0.3,3.4,1.1c1.3,0.8,1.6,0.9,1.9,0.9c0.4,0,0.5-0.2,0.5-0.8l0.3-0.6l0.8,0.6c0.4,0.5,0.6,0.8,0.6,1.5
			c0,1-0.5,1.6-1.5,1.9l-0.2,0.3c-0.5,0.6-1,0.8-1.9,0.8c-0.8,0-1.7-0.3-2.4-0.8l-1.3-0.9c-0.6-0.4-0.9-0.6-1.3-0.6
			c-0.5,0-0.9,0.3-0.9,0.9c0,0.5,0.4,1,0.9,1.1l1.2,0.4c0.4,0.1,0.6,0.2,1.1,0.5l0.6-0.1c0.7,0,1.5,0.2,2.2,0.6l0.5,0.2l0.7,0.2
			c1.5,0.4,2.7,2.1,2.7,3.7c0,1.9-1.2,3-3.2,3L47.1,340.4z"/>
	</g>
	<g>
		<path class="st1" d="M46.6,356.2l0.2-0.3l0.4-0.4c0.3-0.3,0.5-0.8,0.5-1.4l-0.1-0.9l-0.1-0.5l0.3-0.3l0.2,0.1l0.4,0.4l0.6,0.4
			l0-0.4l0-0.4c0-0.6-0.2-1.3-0.6-1.8l-0.3-0.5l0.1-0.2l0.1,0.1l0.5,0.3l0.2-0.7c0-0.5-0.2-1.1-0.5-1.5l-0.3-0.4l-0.1-0.2l0.2-0.2
			l0.3,0.1l0.2,0.1c0.2,0,0.3-0.3,0.3-1.1l0-0.3l0-0.5c0-0.6-0.1-0.7-0.3-0.7h-0.2c-1.3,0-1.9-0.8-2.2-3c-0.2-1.6-0.8-2.7-1.6-3
			c-0.4-0.1-0.6-0.2-0.6-0.4l0.3-0.1l0.5,0.1c1.1,0.4,1.9,0.6,2.7,0.6c1.3,0,2.3-0.9,2.3-2.1c0-0.9-0.4-1.8-1.2-2.6l-0.7-0.4l-0.1,0
			l-0.1,0l0.1,0.4l0.1,0.3l0,0.1l-0.1,0.1l-0.2-0.1l-0.5-0.7c-0.4-0.6-1.2-1-1.8-1l-0.4,0.3l0.2,0.3l0.2,0.4l0,0.1l-0.1,0.1l0,0
			c-0.1,0-0.2-0.1-0.8-0.7c-0.5-0.5-1.4-1.1-2-1.1l-0.2,0.1l-0.1,0.1l0.2,0.3l0.3,0.4l-0.1,0.1c-0.2,0-0.5-0.2-1.1-0.7
			c-1-0.8-1.4-1.5-1.4-2.4c0-1,0.7-1.8,1.7-1.8c0.6,0,1.3,0.3,1.8,0.6l1.3,1c0.6,0.5,1.3,0.7,2.1,0.7l0.5-0.1l0.2-0.2l-0.2-0.1
			c-0.5-0.1-0.8-0.3-1.1-0.5l-1.3-1c-0.5-0.4-0.8-0.6-1-0.7c-0.7-0.4-0.8-0.5-0.8-0.5l0.1-0.1l0.2,0.1l0.7,0.3
			c0.2,0.1,0.6,0.3,1.1,0.7c1.4,0.9,2.1,1.3,3,1.3c0.8,0,1.4-0.6,1.4-1.3l-0.1-0.5l-0.1-0.3l-0.2-0.1l-0.1,0.1l-0.1,0.6L49,329
			l-0.2,0.3l-0.5,0.2c-0.4,0-0.9-0.2-2.1-1c-1.3-0.8-2.4-1.2-3.3-1.2c-1.9,0-3.4,1.5-3.4,3.4c0,2.7,1.6,3.9,6.7,5
			c1.9,0.4,2.8,1,2.8,1.8c0,0.8-0.6,1.3-1.6,1.3l-0.7,0c-0.2,0-1.1-0.3-2.7-0.7c-1.1-0.3-2.4-0.5-3.5-0.5c-2,0-3.3,0.6-4.2,1.9
			l-0.3,0.2l-0.2-0.1l-0.4-0.3l-0.9-0.4l-0.6,0.2l-0.3,0.2c-0.1,0-0.4-0.3-0.6-0.8c-0.3-0.6-0.5-1.2-0.5-1.8l0.2-0.4l0.2,0.2
			l0.2,0.8c0.1,0.4,0.4,0.8,0.5,0.8l0.4-0.3l0.2-0.4c0.2-0.5,0.2-0.6,0.3-0.6c0.2,0,0.2,0.1,0.3,0.6l0.2,0.5l0.3,0.5l0.3,0.1
			c0.2,0,0.4-0.4,0.4-0.8l0-0.1l0-0.5l0.1-0.2l0.2,0.1l0.5,0.4l0.4,0.1l0.3-0.1l0.1-0.2l-0.4-0.5c-0.1-0.1-0.3-0.5-0.5-1.1l-0.2-0.4
			l-0.2,0.1l-0.3,0.1l-0.2,0.1l-0.1,0l-0.2-0.2l0.5-0.6l0.3-0.7c0-0.4,0.1-0.8,0.2-0.8l0.1-0.9c0-0.5,0.2-1.3,0.4-1.8l0.1-0.2
			l0.2,0.4l0,0.1l0,0.3l0.2,0.5l0.4-0.5l0.2-0.6l0.1-0.5c0-0.5-0.3-0.9-0.7-0.9l-0.2,0l-0.2,0.1l-0.3-0.3l0-0.4l0-0.5l-0.1-0.6
			l0-0.3l-0.2,0.1l-0.3,0.2l-0.4,0.3l-0.3,0.3l-0.2,0.1c-0.2,0-0.2-0.1-0.2-0.5v-0.1c0-0.3-0.1-0.6-0.7-1.2l-0.1-0.2l-0.1,0.2
			l-0.3,0.5l-0.3,0.7l-0.1,0.5l-0.1,0.2l-0.3-0.2c-0.4-0.5-0.5-0.5-1.1-0.8l-0.1,0.2l-0.2,0.6l0,0.5v0.2v0.2l-0.1,0.2h0L31,329
			l-0.3-0.1c-0.5,0-0.8,0.3-0.8,0.7c0,0.3,0.1,0.6,0.6,1.3l0.6,0.6l0.1-0.4l-0.1-0.3l-0.1-0.4l0.1-0.2c0.2,0,0.5,0.7,0.6,1.6l0.1,1
			l0.3,1.1c0.2,0.5,0.5,0.8,0.7,1l0.4,0.5l-0.1,0.2l-0.5-0.2l-0.2,0c-0.5,0-0.7,0.3-0.7,1.2c0,1.1,0.7,2.7,1.6,3.3l1.2,1
			c0.6,0.5,1.1,1.3,1.1,1.9c0,0.8-0.9,1.5-2.3,2.1l-0.9,0.3c-0.7,0.2-1,0.7-1.2,2l0.7-0.1l0.1,0l0.4,0l0.6-0.5v-0.2l0.2-0.2l0.4-0.2
			l0.3-0.2l0.1-0.1l0.1,0.2l-0.1,0.2l-0.1,0.9c0,0.6,0.1,1,0.4,1.5l0.1-0.3l0.5-0.7c0.4-0.6,0.7-1.2,0.7-1.6l0-0.1l-0.1-0.6l0.1-0.3
			l0.2-0.1l0.3,0.3l0.2,0.2l0.4-0.5l0.1-0.6l-0.1-0.3l-0.1-0.3l0.1-0.2l0.1-0.1l0.2,0.1l0.2,0.2l0.2,0.1l0.4-0.3l0.4-0.8l-0.2-0.2
			c-0.5-0.4-0.9-0.9-0.9-1.4l0.1-0.4l0.3-0.7l0.2-0.6l0.1,0l0.1,0.2l-0.1,0.3l-0.1,0.5l0.3,0.3l0.4-0.1c0.8-0.3,1.4-0.5,1.8-0.5
			l1,0.3l0.2,0.1l0.2-0.1l0.1-0.1l-0.2-0.3l-0.2-0.4l0.1-0.1c0.4,0,1.1,1.3,1.7,3.4c0.5,1.6,0.6,1.8,2.2,2.7
			c1.3,0.7,1.8,1.5,1.8,2.7c0,1.2-0.3,2.7-1,4.7c-0.2,0.6-0.3,1.1-0.3,1.4c0,0.3,0.1,0.6,0.3,1.3l0.2,0.6L46.6,356.2z"/>
	</g>
	<g>
		<path class="st1" d="M40.5,352.5c0.2-0.4,0.2-0.5,0.5-0.9c0.4-0.6,0.6-1,0.6-1.3v-0.4c0-0.4,0.1-0.6,0.2-0.6l0.1,0.1l0.1,0.2
			l0.2,0.1l0.3-0.2l0.3-0.9l0-0.3l0-0.3l0.2-0.2l0.2,0.2l0.2,0.2l0.2-0.2l0.2-0.3l0.2-0.2l0-0.1l-0.2-0.2c-0.5-0.4-0.7-0.9-0.7-1.9
			c0-0.7-0.1-1.2-0.1-1.5c0-0.1-0.2-0.4-0.5-1.1l-0.3-1l-0.3-0.3c-0.7,0-1.3,0.6-1.3,1.4c0,0.5,0.2,1.2,0.6,2.1
			c0.5,1.3,0.6,1.7,0.6,2.2c0,1-0.4,1.4-1.7,1.9c-1.5,0.5-2.2,1.3-2.5,2.7l0.3-0.1l0.4-0.1l0.4-0.1l0.7-0.5l0.1-0.4l0.2-0.2l0.2-0.1
			l0.2-0.1l0.1,0.1l-0.1,0.3l-0.1,0.6C40,351.7,40.1,352,40.5,352.5"/>
	</g>
	<g>
		<path class="st1" d="M26.3,328l0.1,0.3l-0.1,0.7l0,0.5c0,0.5,0.1,1,0.2,1.4l0.2,0.6l0,0.1l-0.1,0.2l-0.3-0.2l-1-0.4l-0.5,0.1
			l0.1,0.3l0.4,1l0.6,0.8l0.6,0.4l0.2,0.2l0.1,0.2l-0.1,0.1l-0.5,0l-0.1,0.1c0,0.1,0.1,0.4,0.2,0.8l0.3,0.8l0.5,0.4l0.5,0.3l0.2,0.3
			l-0.1,0.2l-0.3,0l-0.1,0.2c0,0.2,0.2,0.6,0.5,1c0.4,0.6,0.7,0.7,1.2,0.7h0.4l0.3,0.2l-0.3,0.2l-0.5,0.3l0.1,0.3l0.2,0.3l0.5,0.4
			l0.4-0.2l0.9-0.6c0.9-0.2,1.1-0.3,1.1-0.5l-0.1-0.3c-0.3-0.5-0.4-0.9-0.4-1.3l-0.2-0.6l-0.2,0.2l-0.9,0.6c-0.9,0-2-1.4-2.6-3.3
			c-0.1-0.4-0.2-0.9-0.2-1.4c0-0.5,0.1-1.1,0.2-1.6c0.2-0.8,0.3-1.2,0.3-1.3l0-0.4C27.8,329.5,27.2,328.6,26.3,328"/>
	</g>
	<g>
		<path class="st1" d="M28.2,331.6c-0.2,0.4-0.4,1.2-0.4,1.7l0.2,0.5l0.1-0.1l0.3-0.5l0.2-0.3l0.2-0.4L28.2,331.6z"/>
	</g>
	<g>
		<path class="st1" d="M31.1,343.6l0.1,0.1l0.2,0.2c0.5,0.5,0.6,0.6,0.8,0.6l1-0.3l0.2-0.2l-0.3-0.3l-0.3-0.3l-0.7-0.4
			C31.9,343.1,31.6,343.3,31.1,343.6"/>
	</g>
	<g>
		<path class="st1" d="M37.2,348.4l0.5,0.3l0.4,0.3l0.4,0.1l0.3-0.1l0.6-0.2l0.5-0.2l0.2-0.2l-0.3-0.1l-0.4-0.1
			c-0.7-0.3-0.8-0.3-1-0.3C38.1,347.7,37.5,348,37.2,348.4"/>
	</g>
	<g>
		<path class="st1" d="M43.9,353.7c0.2-0.4,0.3-0.5,0.9-0.5c0.7,0,1.3-1.3,1.3-2.1l-0.1-0.2l-0.2,0.1l-0.4,0.2l-0.8,0.3
			c-0.5,0.2-1,0.9-1,1.4L43.9,353.7z"/>
	</g>
	<g>
		<path class="st5" d="M32.5,330.7l0.3,0.4l0.6,0.4l0.2-0.2l0.1-0.4l0-0.4c0-0.3-0.2-0.5-0.9-0.7l-0.4-0.1l-0.3-0.2l-0.1,0.1l0,0.1
			l0.1,0.4L32.5,330.7z"/>
	</g>
	<g>
		<polygon class="st5" points="35.9,329.4 35.5,329.7 35,329.9 34.5,330.3 34.5,330.8 34.8,331.4 34.9,331.4 35,331.3 35.3,330.7 
			35.9,330.1 36.1,329.6 36.1,329.6 36,329.4 		"/>
	</g>
	<g>
		<path class="st5" d="M34.6,332.5l0.4-0.2l0.2-0.1l0.4,0.4c0,0.3-0.2,0.7-0.6,1.3c-0.3,0.6-0.6,1.1-0.9,1.1c-0.4,0-0.9-0.6-1.4-1.6
			l-0.2-0.7l0.4-0.5l0.3,0.1l0.2,0.2l0.7,0.2L34.6,332.5z"/>
	</g>
	<g>
		<path class="st1" d="M34,333.1l-0.3-0.1l0,0l-0.3,0.3l0.5,1.1l0.2,0.1c0.2,0,0.3-0.3,0.4-0.9l0.1-0.4l0-0.1l-0.2-0.2l-0.1,0"/>
	</g>
	<g>
		<path class="st0" d="M93.2,340c0.5,0.6,1.1,1,1.6,1l0.7-0.1l0.4-0.1l0.2,0.2l-0.1,0.5l-0.2,0.5l-0.1,0.6l-0.3,0.5l-0.4,0.3
			l-0.1,0.1v0.2v0.1c0,0.6-0.2,1-0.7,1.4l-0.2,0.1l-0.1,0.2c-0.1,0.5-0.2,0.8-0.3,0.9l-0.5,0.7c-0.3,0.4-0.5,0.8-0.7,1.1l-0.4,0.3
			l-0.6-0.7l-0.1,0.2l-0.3,0.2l-0.5,0.3l-0.4,0.3l-0.3,0.3l-0.2,0.1c-0.1,0-0.3-0.2-0.4-0.7l-0.3-0.9L89,347c0-0.4,0-0.6,0.2-0.9
			c-0.5,0.1-0.7,0.1-1,0.2l-0.2,0.1l-0.1-0.2l0.1-0.4l0.3-0.9c0.3-0.7,1.1-1.3,1.8-1.3l0.7,0.1l0.4,0.1l0.6-0.5l-0.2-0.3
			c0,0-0.4-0.1-1-0.3c-0.4-0.1-0.7-0.3-1.2-0.9c-0.4-0.4-0.5-0.5-0.6-0.5l-0.2,0.2l0,0.4l0,0.2c0,0.7-0.2,1.4-0.7,2.4l-0.7,1.3
			c-0.4,0.6-0.5,1.1-0.5,1.6c0,0.5,0.2,1,0.5,1.1l0.4,0.1l0.1,0.1l0.1,0.2l-0.1,0.2l-0.5,0.6c-0.5,0.6-0.7,0.8-1.3,1
			c-0.3,0.8-0.8,1.2-1.8,1.5l-0.1,0.2c-0.3,0.6-1,1.1-1.5,1.1h-0.1c-0.1,0.5-0.4,1-0.9,1.3l-0.6,0.5l-0.1,0.2l-0.4,0.4
			c-0.3,0-0.5-0.3-0.7-0.8l-0.2,0.2l-0.5,0.3c-0.1,0.1-0.4,0.2-0.9,0.3c-0.7,0.1-1.2,0.4-1.4,0.7l-0.2,0.4l-0.1,0.1l-0.3-0.4
			c-0.1-0.5-0.2-1.1-0.2-1.5c0-0.9,0.3-1.6,1.3-2.5v-0.2c0-1.5,1.1-2.4,2.8-2.4l0.3,0l0.9,0.1l0.1,0c0.5,0,0.9-0.2,1.4-0.6
			c0.6-0.5,0.8-0.9,0.8-1.4c0-0.2-0.1-0.4-0.3-1.1c-0.1-0.4-0.2-0.8-0.2-1.2c0-1.1,0.8-2.5,1.9-3.2l0.5-0.6l-0.1-0.1l-0.3,0.2
			l-0.6,0.4l-0.4,0.2l-0.5,0.2l-0.2,0.2l0.1,0.2l0.1,0.2l-0.1,0.3l-0.4,0.6c-0.4,0.6-0.6,0.9-1.1,1.1c-0.3,0.9-0.7,1.3-1.3,1.4
			c-0.5,1-0.9,1.4-1.8,1.5c-0.1,0.4-0.3,0.7-0.8,1.2l-0.3,0.4L77,350l-0.6-0.4l-0.2-0.3l-0.2-0.4l-0.3-0.2l-0.2,0l-0.6,0.1l-1.1,0.6
			l-0.3,0.5l-0.1,0.1c-0.2,0-0.4-0.5-0.4-1.4c0-0.8,0.1-1.3,0.4-1.6l0.7-1l0.2-0.4l-0.1-0.3l-0.4-0.3l-0.6-0.1l-0.1-0.1l0.1-0.2
			l0.7-0.6c0.7-0.4,1.1-0.6,1.5-0.6c0.4,0,0.9,0.2,1.4,0.5l0.8,0.5l0.4,0.1c0.4,0,0.6-0.2,0.9-0.7c0.2-0.5,0.3-0.8,0.3-1.2
			c0-1-0.7-1.7-1.7-1.7c-0.5,0-0.9,0.2-1.4,0.5l-0.3,0.3l-0.2,0.5l-0.2,0.2c-0.1,0-0.4-0.4-0.7-0.9l-0.4-1c-0.2-0.5-0.2-0.9-0.2-1.3
			l0-0.7c-0.4-0.6-0.5-1-0.5-1.6c0-0.2,0-0.4,0.2-0.9c-0.2-0.4-0.3-0.7-0.3-1.2l0-0.3l0.1-0.4l0.1-0.3c-0.3-0.3-0.3-0.6-0.6-1.7
			c-0.1-0.7-0.2-0.9-0.3-1.1l-0.1-0.2c0-0.2,0.4-0.3,0.8-0.3l0.4,0l-0.1-0.5l0.2-1.1c0.1-0.4,0.2-0.5,0.2-0.6l-0.1-0.8l-0.2-0.5
			l-0.1-0.3l0.1-0.1c0.5,0,1.5,0.6,2.3,1.3c0.8,0.7,1,1.3,1,2.4l0,0.6c0.7,0.6,1,1.2,1,1.7c0,0.4-0.1,0.7-0.5,1.1
			c-0.7,0.7-0.9,1.1-0.9,2c0,1.4,0.4,2.2,1.2,2.2c0.7,0,1.2-0.7,1.3-1.8l0.1-1l0.1-1l0.1-0.7c0-0.4-0.2-0.8-0.9-1.6
			c-0.7-0.9-1-1.3-1-2c0-0.8,0.6-1.4,1.3-1.4l0.5,0.1c0-0.5,0-0.6,0.3-1.2c0.2-0.5,0.4-0.9,0.5-0.9l0.2,0.1l0.3,0.3l0.3,0.2l0.2,0.2
			c0.2-0.6,0.3-0.9,0.8-1.3l0.6-0.5l0.2,0.1l0.3,0.4l0.5,0.5c0.2,0.2,0.2,0.4,0.3,0.8l0.3-0.2l0.4-0.2l0.3-0.2l0.2-0.1l0.1,0.2
			l0.2,0.6l0.3,0.7l0.1,0.7l0,0.2l0.2,0c0.5,0,1,0.6,1,1.3c0,0.9-0.8,2.2-1.7,2.8l-0.1,0.7c0,2.1,0.6,2.6,3.8,3
			c0.8,0.1,1.5,0.3,2.2,0.5c0.1,0,0.8,0.3,2.1,0.7c0.7,0.2,1.2,0.3,1.6,0.3l0.6-0.3c0-0.4-0.5-0.7-2.2-1.3l-2.3-0.9
			c-2.3-0.9-3.4-2.3-3.4-4.5c0-2.4,1.8-4.3,4.3-4.3c0.9,0,1.8,0.2,3.1,0.7c1.7,0.6,1.8,0.6,1.9,0.6c0.3,0,0.5-0.2,0.5-0.7
			c0-0.4,0.1-0.6,0.4-0.6c0.3,0,0.7,0.3,0.9,0.8c0.2,0.4,0.3,0.9,0.3,1.4c0,0.9-0.5,1.4-1.3,1.6c-0.6,0.7-1.3,1.1-2.1,1.1
			c-1.1,0-1.6-0.2-3.4-1.3c-0.6-0.4-0.9-0.5-1.4-0.5c-0.6,0-1.1,0.4-1.1,0.9c0,0.5,0.4,0.8,1.3,1c0.5,0.1,0.6,0.2,0.9,0.5l0.4-0.1
			c0.9,0,1.9,0.5,2.8,1.2c1.6,0.5,3.1,2.3,3.1,3.7c0,1.6-1.4,3.1-3,3.1C94.8,340.4,93.9,340.2,93.2,340"/>
	</g>
	<g>
		<path class="st1" d="M92.2,347.4l0.1-0.3l0.1-0.4l0.3-0.5c0.3-0.4,0.4-0.8,0.4-1.3l-0.1-0.5l-0.1-0.2l0.1-0.1L93,344l0,0l0.3,0.2
			l0.3,0.2l0.3-0.5l0-0.3l-0.2-0.7l-0.1-0.3l0.1-0.2l0.4,0.2l0.2,0.1c0.2,0,0.3-0.2,0.4-0.6l0.1-0.4l-0.1-0.1l-0.1,0l-0.3,0
			c-0.5,0-1.2-0.3-1.5-0.7l-0.7-0.9l-0.7-0.9l-0.6-0.4l-0.2-0.2l0.3-0.2c0.1,0,0.6,0.2,1.4,0.5c0.8,0.3,2,0.6,2.7,0.6
			c1.3,0,2.3-1,2.3-2.3c0-0.7-0.3-1.3-1-2.2l-0.5-0.3l-0.1,0.2l0.1,0.3l0,0.2l-0.1,0.2c-0.2,0-0.3-0.3-0.5-0.7
			c-0.2-0.6-0.5-0.9-1.3-1.3l-0.8-0.3l-0.1,0.1l0.1,0.3l0.2,0.5v0l-0.1,0.2c-0.2,0-0.2,0-0.6-0.6c-0.2-0.3-0.7-0.7-1.2-0.9l-0.4-0.1
			h0l-0.2,0.1l0.1,0.2l0,0.1l-0.1,0.1c-0.2,0-0.6-0.4-1-0.9c-0.4-0.5-0.7-1.1-0.7-1.6c0-1,1-1.9,2-1.9l0.7,0.1l0.9,0.5l1.1,0.7
			c0.6,0.4,1.5,0.7,2,0.7c0.2,0,0.3,0,0.8-0.2l0.4-0.3l0,0l-0.1-0.1l-0.6,0c-0.3,0-1.1-0.4-1.6-0.7l-1.2-0.8l-1.1-0.5l-0.1-0.1
			l0.1-0.1l0.3,0.1l1,0.3c0.3,0.1,0.7,0.3,1.2,0.6c1.1,0.6,1.8,0.8,2.3,0.8c0.6,0,1.1-0.4,1.1-1l-0.1-0.8l-0.2-0.3l-0.1-0.1
			l-0.1,0.2l0,0.2l0,0.2c0,0.5-0.2,0.7-0.7,0.7c-0.4,0-1-0.2-2.4-0.7c-1.3-0.5-2.1-0.7-2.8-0.7c-2,0-3.7,1.6-3.7,3.5
			c0,1.6,1.1,2.8,3.2,3.7l2.3,0.9c1.9,0.8,2.5,1.3,2.5,2c0,0.6-0.6,1-1.4,1c-0.4,0-0.8-0.1-1.7-0.4c-2.1-0.7-3.5-1-4.7-1
			c-2,0-3.4,0.5-4.5,1.7l-0.4,0.2l-0.4-0.2l-0.6-0.2l-0.6,0.4l-0.3,0.3l-0.2,0.2l-0.7-0.7l-0.3-0.7l-0.1-0.7l0-0.5l0.1-0.5l0.1-0.5
			l0.1-0.1l0.2,0.4l0,0.2l0,0.1c0,0.8,0.3,1.4,0.6,1.4c0.3,0,0.5-0.5,0.7-1.4l0.2-0.3c0.1,0,0.2,0.1,0.2,0.5l0.4,0.8l0.3,0.2
			c0.2,0,0.4-0.3,0.5-1.1l0.2-0.5l0.1,0.1l0.2,0.3l0.3,0.3l0.3,0.1l0.2-0.1l0.2-0.2l-0.2-0.2c-0.2-0.2-0.3-0.4-0.5-0.9l-0.2-0.6
			l-0.1-0.2l-0.1,0l-0.2,0l-0.6,0.2l-0.2,0l-0.1-0.1l0.2-0.3c0.7-0.5,1.1-1.4,1.2-2.7c0.1-0.8,0.2-1.1,0.5-1.6l0.2-0.2l0.2,0.2
			l-0.1,0.4l-0.1,0.3l0,0.1l0.1,0.2l0.3-0.1l0.3-0.4l0.3-1.1l-0.2-0.6l-0.4-0.3l-0.2,0l-0.2,0l-0.3-0.2l0-0.2l0-0.3l-0.2-0.7
			l-0.1-0.3l-0.1-0.3l-0.2,0.1l-0.4,0.2l-0.3,0.3c-0.4,0.5-0.4,0.5-0.6,0.5l-0.1-0.1l0-0.1l0.1-0.5c0-0.5-0.3-1.2-0.7-1.5
			c-0.6,0.5-0.8,1.1-0.8,1.7v0.3l-0.1,0.2h0l-0.2-0.1l-0.3-0.4l-0.4-0.3l-0.2-0.2l-0.1,0.2c-0.3,0.5-0.4,0.8-0.4,1.3l-0.1,0.5
			l-0.2-0.1c-0.4-0.2-0.4-0.2-0.6-0.2c-0.5,0-0.8,0.3-0.8,0.8l0.3,0.9c0.2,0.4,0.6,0.8,0.8,0.8l0.1-0.2v-0.1l0-0.4l-0.1-0.3l0,0
			l0.1-0.1c0.2,0,0.5,0.7,0.6,2.1c0.2,1.2,0.5,2.1,1,2.6l0.2,0.3l-0.1,0.1l-0.3-0.1l-0.3-0.1l-0.6,0.6l-0.2,1.5l-0.2,2.1
			c0,0.4,0,0.9,0.2,1.6c0.1,0.6,0.2,1,0.2,1.3c0,1.6-1,2.8-2.6,3.3l-1.7,0.5c-1.1,0.3-1.6,1-1.7,2.3c0.3-0.2,0.4-0.2,0.8-0.3
			l0.5-0.1l0.4-0.1l0.3-0.3l0.4-0.5l0.4-0.3l0.1,0.2l-0.2,0.4l-0.2,0.7c0,0.3,0.1,0.6,0.4,1l0.1-0.3l0.4-0.6c0.4-0.5,0.6-1,0.6-1.2
			c0-0.4,0-0.5,0.1-0.5l0.1,0.3l0.1,0.2l0.2,0.1l0.2-0.1l0.4-0.4l0.3-0.5l0.1-0.5l0-0.3l0.1-0.2l0.3,0.3l0.2,0.1h0l0.2-0.1l0.5-1
			l0-0.5l-0.1-0.4l0,0l0.1-0.2l0.4,0.6l0.2,0.3l0.5-0.5l0.2-0.3l0.1-0.3l-0.1-0.3l-0.2-0.3l0-0.3c0-0.4,0.1-0.8,0.4-1.2l0.3-0.7
			l0.1-0.2l0.1,0.1l0,0.3v0.2v0.2l0.2,0.1l0.3-0.1l0.7-0.2l0.6-0.3c1-0.6,1.4-0.7,1.9-0.7c0.3,0,0.7,0.1,1.3,0.4l0.3,0.1l0.2-0.1
			l0.1-0.2l-0.1-0.3l-0.2-0.4l0.1-0.1l0.2,0.1c0.1,0.1,0.3,0.5,0.6,1.1c0.5,0.9,1.1,1.5,1.7,1.6l1.2,0.3c0.4,0.1,0.5,0.2,0.5,0.7
			c0,0.8-0.4,1.5-1.1,2l-1,0.6c-0.3,0.2-0.6,0.8-0.6,1.3c0,0.3,0.1,0.9,0.2,1.4l0.2-0.2l0.5-0.3l0.4-0.4l0.2-0.6l0.2-0.5l0.3-0.4
			l0.1,0.4l0,0.1v0.1C91.8,346.6,91.9,346.8,92.2,347.4"/>
	</g>
	<g>
		<path class="st1" d="M76.5,354.9c0-1.3,0.5-1.8,2.3-2.7c3.6-1.8,5.5-3.5,5.5-4.8c0-0.3-0.1-0.6-0.3-1.4c-0.1-0.5-0.2-0.9-0.2-1.1
			c0-0.6,0.5-1.5,1.1-2l0.5-0.5l0.5-0.8l0-0.1l0-0.2l0.4-0.4l0.2,0l0.2-0.1l0.2,0.1l0.1,0.2l0.2,0.2l0.2,0.1l0.2-0.1l0.3-0.1
			l0.2,0.2c0,0.5-0.3,1.3-1,2.1c-1,1.4-1.3,2.1-1.3,3c0,0.7,0.2,1.3,0.6,1.8l0.1,0.2l-0.2,0.3l-0.2,0.2l-0.5,0.4l-0.2-0.2l-0.1-0.3
			l-0.2-0.1l-0.1,0.1l-0.1,0.3v0.5l-0.2,0.5l-0.4,0.4l-0.2,0.1l-0.2-0.2l-0.2-0.5l-0.1-0.1l-0.2,0.4c-0.1,0.6-0.2,1-0.3,1.1
			l-0.4,0.3l-0.3,0.2l-0.2-0.1l-0.2-0.4l-0.1-0.1c-0.1,0-0.2,0.2-0.2,0.6c-0.1,1-0.3,1.4-0.8,1.7c-0.4,0.3-0.5,0.4-0.7,0.7
			c-0.2-0.3-0.3-0.6-0.3-1.1l0.1-0.5l0.2-0.4l-0.1-0.1l-0.1,0.1l-0.3,0.3c-0.5,0.3-0.5,0.4-0.7,0.9c-0.2,0.7-0.5,1-1.2,1.2
			c-0.9,0.2-1,0.2-1.3,0.5L76.5,354.9z"/>
	</g>
	<g>
		<path class="st1" d="M74.8,327.6v0.3l0,0.4l-0.1,0.4l-0.1,0.6c0,0.5,0.1,0.8,0.4,1.3l0.3,0.9l-0.1,0.2l-0.1-0.1l-0.2-0.3
			c-0.2-0.2-0.3-0.3-0.8-0.3l-0.5,0c0.2,0.5,0.2,0.6,0.3,0.9c0.2,0.9,0.2,0.9,0.7,1.4c0.5,0.4,0.5,0.5,0.5,0.6l-0.2,0.2l-0.2,0
			l-0.1,0l-0.3,0.6l0.2,0.7l0.2,0.3l0.3,0.3l0.1,0.3l-0.2,0.2l-0.2-0.1l-0.2-0.1l-0.2,0.2l0,0.4l0.2,0.7l0.3,0.5l0.4,0.3l0.5,0.2
			l0.1,0.2l-0.2,0.2l-0.3-0.1l-0.3,0l-0.3,0.2l0,0.4L75,340c0.1,0.4,0.3,0.7,0.4,0.7l0.2-0.1c0.4-0.3,1.2-0.6,1.6-0.6
			c0.5,0,1.1,0.1,1.3,0.1l0.3,0.1l0.1-0.3l0.1-0.5l0.1-0.8l0.1-0.6v-0.3l-0.2,0.2c-0.5,0.4-0.7,0.6-1.2,0.6c-1.2,0-1.9-1.4-1.9-3.8
			c0-1,0.1-2.4,0.4-4l0.1-0.7C76.3,329.1,75.8,328.2,74.8,327.6"/>
	</g>
	<g>
		<polygon class="st1" points="76.8,332.1 76.7,332.5 76.6,332.9 76.6,333.3 76.6,333.5 76.8,333.3 77.1,333.1 77.4,332.3 
			77.3,331.9 77,331.5 		"/>
	</g>
	<g>
		<path class="st1" d="M74.3,344.4l0.6,0.5c0.4,0.4,0.6,0.5,1.1,0.5l0.4-0.1l0.3-0.1l0.3-0.1l0.2-0.1l-0.5-0.5l-0.6-0.4l-0.6-0.2
			L74.3,344.4z"/>
	</g>
	<g>
		<path class="st1" d="M77.8,351.8c0-0.9,0.8-1.6,1.9-1.6c0.5,0,0.8,0.1,0.8,0.3c0,0.1-0.2,0.3-0.7,0.6c0,0-0.3,0.2-0.8,0.4
			c-0.5,0.3-0.7,0.4-1.2,0.6L77.8,351.8z"/>
	</g>
	<g>
		<path class="st1" d="M88.6,345.4l0.7-0.2l0.5,0l0.3-0.2l0.4-0.3c0.5-0.4,0.6-0.4,0.6-0.5c0-0.2-0.2-0.2-0.7-0.2
			C89.5,344.1,89,344.4,88.6,345.4"/>
	</g>
	<g>
		<path class="st5" d="M80.6,329.3l0.4,0.2l0.5,0.3c0.4,0.2,0.6,0.2,0.6,0.4l-0.1,0.3l-0.1,0.4l-0.4,0.5c-0.2,0-0.4-0.3-0.7-0.8
			l-0.4-1.1l0-0.1L80.6,329.3"/>
	</g>
	<g>
		<polygon class="st5" points="84.1,329.5 83.6,329.8 83,330 82.8,330.3 82.8,330.3 82.8,330.8 82.8,331.2 83.1,331.5 83.1,331.5 
			83.3,331.4 83.6,330.8 84.2,330.2 84.5,329.8 84.5,329.6 84.4,329.4 		"/>
	</g>
	<g>
		<path class="st5" d="M81.5,332l0.4,0.3l0.3,0.1l0.6-0.2l0.3-0.2l0.2-0.1l0.4,0.5c0,0.4-0.3,0.8-0.7,1.4l-0.3,0.6l-0.6,0.5
			c-0.3,0-0.5-0.2-0.9-1.1c-0.3-0.7-0.5-1.1-0.5-1.4l0.4-0.5L81.5,332z"/>
	</g>
	<g>
		<path class="st1" d="M81.9,333.5l0,0.5l0.4,0.5c0.2,0,0.4-0.4,0.5-0.9l0.1-0.4l-0.3-0.2l-0.1,0h-0.2l-0.1,0l-0.2,0.5"/>
	</g>
	<g>
		<path class="st0" d="M52.1,321.5h2.6v5.3h3.1v-5.3h7.7v5.3h3v-5.3H71v-13.7h-3l-0.1-0.2c-0.4-0.5-0.8-0.8-1.4-0.8
			c-0.6,0-1.1,0.3-1.4,1H63c-0.2-0.6-0.8-1-1.4-1c-0.7,0-1.2,0.3-1.5,1h-2.3c-0.4-0.7-0.8-1-1.5-1c-0.7,0-1.1,0.3-1.4,1h-2.8
			C52.1,307.8,52.1,321.5,52.1,321.5z"/>
	</g>
	<g>
		<rect x="53.2" y="308.9" class="st4" width="16.8" height="11.5"/>
	</g>
	<g>
		<path class="st1" d="M54.9,311.6c-0.4,0-0.8,0.4-0.8,0.8c0,0.4,0.4,0.8,0.8,0.8s0.8-0.4,0.8-0.8C55.7,311.9,55.4,311.6,54.9,311.6
			"/>
	</g>
	<g>
		<path class="st0" d="M54.9,311.7l-0.7,0.7l0.7,0.7l0.7-0.7L54.9,311.7z M54.9,313.3c-0.5,0-0.9-0.4-0.9-0.9c0-0.5,0.4-0.9,0.9-0.9
			c0.5,0,0.9,0.4,0.9,0.9C55.8,312.9,55.4,313.3,54.9,313.3"/>
	</g>
	<g>
		<path class="st1" d="M68.1,311.6c-0.4,0-0.8,0.4-0.8,0.8c0,0.4,0.4,0.8,0.8,0.8c0.4,0,0.8-0.4,0.8-0.8
			C68.9,311.9,68.6,311.6,68.1,311.6"/>
	</g>
	<g>
		<path class="st0" d="M68.1,311.7l-0.7,0.7l0.7,0.7l0.7-0.7L68.1,311.7z M68.1,313.3c-0.5,0-0.9-0.4-0.9-0.9c0-0.5,0.4-0.9,0.9-0.9
			c0.5,0,0.9,0.4,0.9,0.9C69,312.9,68.6,313.3,68.1,313.3"/>
	</g>
	<g>
		<path class="st1" d="M54.9,317.9c-0.4,0-0.8,0.4-0.8,0.8c0,0.4,0.4,0.8,0.8,0.8c0.4,0,0.8-0.4,0.8-0.8
			C55.7,318.2,55.4,317.9,54.9,317.9"/>
	</g>
	<g>
		<path class="st0" d="M54.9,318l-0.7,0.7c0,0.4,0.3,0.7,0.7,0.7l0.7-0.7L54.9,318z M54.9,319.6c-0.5,0-0.9-0.4-0.9-0.9
			s0.4-0.9,0.9-0.9c0.5,0,0.9,0.4,0.9,0.9S55.4,319.6,54.9,319.6"/>
	</g>
	<g>
		<path class="st1" d="M68.1,317.9c-0.4,0-0.8,0.4-0.8,0.8c0,0.4,0.4,0.8,0.8,0.8c0.4,0,0.8-0.4,0.8-0.8
			C68.9,318.2,68.6,317.9,68.1,317.9"/>
	</g>
	<g>
		<path class="st0" d="M68.1,318l-0.7,0.7l0.7,0.7l0.7-0.7L68.1,318z M68.1,319.6c-0.5,0-0.9-0.4-0.9-0.9s0.4-0.9,0.9-0.9
			c0.5,0,0.9,0.4,0.9,0.9S68.6,319.6,68.1,319.6"/>
	</g>
	<g>
		<path class="st1" d="M57.4,315.4c1.1,1.4,2.5,2,4.1,2c1.6,0,2.6-0.6,3.9-2c-1.3-1.3-2.4-1.8-4-1.8
			C59.9,313.6,58.4,314.2,57.4,315.4"/>
	</g>
	<g>
		<path class="st0" d="M58.2,315.4c1.1-0.9,2.1-1.2,3.2-1.2c1.2,0,2.1,0.3,3.2,1.3c-1,1-1.9,1.4-3.2,1.4
			C60.2,316.8,59.2,316.3,58.2,315.4"/>
	</g>
	<g>
		<path class="st1" d="M59.6,315.2c0.7,0.4,1.2,0.6,1.8,0.6c0.7,0,1.4-0.2,1.9-0.6c-0.6-0.3-1.3-0.5-1.9-0.5
			C60.8,314.7,60.1,314.9,59.6,315.2"/>
	</g>
	<g>
		<rect x="52.9" y="309.5" class="st0" width="17.3" height="0.6"/>
	</g>
	<g>
		<path class="st6" d="M53,309.6h17.2v0.5H53V309.6z M52.9,310.2h17.4v-0.7H52.9C52.9,309.5,52.9,310.2,52.9,310.2z"/>
	</g>
	<g>
		<path class="st1" d="M55.6,308.8v1.4v0.3c0,0.4,0.3,0.7,0.7,0.7c0.5,0,0.7-0.2,0.7-0.7v-0.3v-1.3c0-0.6-0.3-1-0.7-1l-0.3,0.1
			l-0.2,0.1l-0.2,0.2l-0.1,0.3"/>
	</g>
	<g>
		<path class="st1" d="M60.8,310.1v0.3c0,0.4,0.3,0.7,0.7,0.7c0.5,0,0.7-0.2,0.7-0.7v-0.3v-1.3c0-0.6-0.3-1-0.7-1
			c-0.5,0-0.8,0.4-0.8,1"/>
	</g>
	<g>
		<path class="st1" d="M65.8,308.8v1.4v0.3c0,0.4,0.3,0.7,0.7,0.7c0.5,0,0.7-0.2,0.7-0.7v-0.3v-1.3c0-0.6-0.3-1-0.7-1l-0.3,0.1
			l-0.2,0.1l-0.2,0.2l-0.1,0.3"/>
	</g>
	<g>
		<rect x="55.2" y="322.7" class="st1" width="1.6" height="2"/>
	</g>
	<g>
		<rect x="55.2" y="325.2" class="st1" width="1.6" height="0.6"/>
	</g>
	<g>
		<rect x="65.9" y="322.7" class="st1" width="1.6" height="2"/>
	</g>
	<g>
		<rect x="65.9" y="325.2" class="st1" width="1.6" height="0.6"/>
	</g>
</g>
</svg>
