<?xml version="1.0" encoding="utf-8"?>
<!-- Generator: Adobe Illustrator 19.2.1, SVG Export Plug-In . SVG Version: 6.00 Build 0)  -->
<svg version="1.1" id="layer" xmlns="http://www.w3.org/2000/svg" xmlns:xlink="http://www.w3.org/1999/xlink" x="0px" y="0px"
	 viewBox="0 0 652 652" style="enable-background:new 0 0 652 652;" xml:space="preserve">
<style type="text/css">
	.st0{fill:#E61D2B;}
</style>
<g>
	<path class="st0" d="M245.5,259.9c-1.5-2.3-5.1-2-9.2-2c-6.9,0-12.8,0-19.2,0c-3.1,0-7.3-0.3-9.8,0.2c-4.5,0.7-3.9,4.4-3.9,10
		c0,19.7,0,34.9,0,54.4c0,11.4,0,19.3,0,31.1c0,5.1,0,10.4,0,15.6c0,4.3-1,12.2,0.8,14.8c1.7,2.6,6.4,2,11,2c6.7,0,13.8,0,19.6,0
		c3.2,0,7.6,0.4,9.4-0.6c3.2-1.9,2.1-10.4,2.1-16.2c0-32.2,0-62,0-94.3C246.3,271,247.1,262.3,245.5,259.9z M235.7,337.9
		c0.5,2.8,0.1,5.7-1.1,6.6c-1.9,1.5-6.7,1.6-10.3,1.5c-2.9-0.1-8.3-0.2-9.8-1.8c-2.8-2.9,0.8-10.3,1.1-13.9c0.2-3.2-0.2-6.4-0.6-9.5
		c-0.7-5.6-1.5-10.8-1.1-17.4c0.1-2.2,0.9-4.1,1.1-6c0.1-1-0.2-1.5-0.2-2.3c0.3-3.7,2.2-7.3,3.3-10.9c1.1-3.6,2.5-7.6,2-12.2
		c-0.1-0.9-0.5-1-0.5-2c0-0.9,0.7-1.5,0.8-2.3c0-0.9-0.9-1.3-0.3-2.3c1.8-1.5,7.9-1.3,9.8,0c0.5,1-0.6,1.3-0.6,2.1
		c0,0.7,0.9,1.5,0.9,2.4c0,0.8-0.5,1-0.6,2c-0.7,4.5,1,8.7,2.1,12.2c0.5,1.8,1.1,3.6,1.7,5.4c0.7,2.1,1.8,4.3,1.5,6.8
		c0,0.1-0.3,0.6-0.3,0.8c0.1,1,0.8,2.1,0.9,3.2c0.3,2.3,0.3,5,0.3,7.7c0,1.2,0.2,2.4,0.2,3.5l-2,18.7
		C234.2,333.3,235.3,335.3,235.7,337.9z"/>
	<path class="st0" d="M480.1,324.6c-4.9-4.3-12.9,0.2-16.6,2.9c-9.3,6.7-13.7,16.8-15.9,29.9c0.2,0.5,0.5-0.3,0.6-0.3
		c4.3-3.8,8.7-8.2,14.5-10.3c1.7-6.3,3.8-12.2,8.2-15.9c1.3-1.1,4-3.1,6.5-2.1c3.9,1.5,0.9,11-0.3,13.9c-3.2,8.2-8.7,15.5-14.7,21
		c-3,2.8-7,5.9-11.3,6.6c-8.6,1.4-12.8-4.5-12.1-13.9c0.4-5,2.2-10.2,3.8-14.8c4.8-13.8,12.9-25.1,20.9-35.4
		c7.9-10.2,17.5-20,28.6-27.5c4.6-3.1,10.1-6.7,16.9-5.6c-8.4,5.4-17.3,13.1-22.5,22.7c-1.9,3.6-5.2,10.1-2.9,14.5
		c3.1,5.9,11.7,1.4,15.3-1.5c3-2.4,5.4-5.1,7.4-7.9c5.2-7.2,9.6-15.4,8.9-25.8c6.4-1.8,11.6,0.5,16,2.6c8.6,4,15.5,10.6,23.7,14.4
		c2.1-2.2,4.5-4.8,6.7-7c0.7-0.7,2-1.5,1.8-2.1c-7.2-3.6-14-8.7-21.9-12.1c-8.2-3.5-20.6-3.6-28.4,0.3c-2.7-2.4-6.4-3.4-11.6-3
		c-6.5,0.5-13.1,3.9-18.1,6.7c-5.3,2.9-10,6.4-14.4,9.8c-8.4,6.7-17,15.3-23.9,24.5c-6.3,8.3-13,18.1-17.8,30.5
		c-2.2,5.6-4.3,12.4-4.1,20.1c0.3,10.7,6.2,19.7,17.7,19.3c11.5-0.4,19.7-7.6,25.4-13.3c6.7-6.7,11.5-14.4,14.7-24
		C482.8,336.2,484.1,328.1,480.1,324.6z M503.6,298.7c-1.8,2.4-3.8,4.5-6.5,6.8c-1.4,1.2-5.6,5.3-9.1,3.9c-3.4-1.4-0.4-8.7,0.8-10.7
		c1.8-3.3,4-6.3,6-8.8c4.7-5.7,10.6-10.7,16.6-13.5C511.9,285.6,507.9,293.2,503.6,298.7z"/>
	<path class="st0" d="M598.5,324.3c-3.8,0-7.6,0-11.3,0c-0.8,0.8-1.2,1.9-2,2.7c-1.6-2.1-2.9-3.8-5.7-4.1c-6.6-0.6-12,4.4-15.7,7.9
		c-8.7,8-14.4,16.6-21,26.4c-1.2,1.9-2.9,4.6-4.8,7c-2.5,3-9.7,9.2-8.9-0.2c0.5-5.3,3.1-11,5-15.4c0.7-1.6,1.5-3.8,2.3-4.7
		c0.7-0.7,2.2-1.5,3.3-2.3c1.1-0.8,2.3-1.7,3.3-2.4c14.5-10.8,27.6-24.3,38.4-38.5c0.3-0.4,0.9-0.9,0.8-1.5
		c-1.2,0.3-2.5,0.4-3.9,0.5c-11.2,14-23.2,27.2-38.2,37.3c11.7-21.6,24.6-42.6,42.5-58c2.6-2.3,5.3-5.1,8.9-5.6
		c1.2,1.9,0,4.3-0.8,6.2c-0.4,0.9-0.9,1.9-1.4,2.7c-0.5,1-1.1,1.8-1.1,2.6c1.5-0.3,2.7-0.7,4.1-1.1c1.1-2.6,2.9-5.9,3.2-9.4
		c0.3-4.1-1.8-5.7-6-5.3c-4.8,0.5-8.6,3.6-11.8,5.9c-3.6,2.6-6.8,5.3-9.8,8c-18.6,17-33.7,39.2-44.7,62.1c-1.9,0.5-4,1.5-6.2,1.2
		c1.6-4.1,4.3-9,4.7-14.5c0.4-5.9-2.2-9.6-8.2-9.1c-5.7,0.5-11.1,4.8-14.8,8c-6.6,5.7-14.2,14.9-18.3,23.4
		c-2.2,4.5-4.7,10.2-4.5,16.3c0.1,5.5,3.1,9.4,8.9,8.8c4-0.5,7.4-3,10-5c7.4-5.5,12.5-11.6,17.5-19.8c0.8-1.3,2-4.1,3-4.5
		c1.8-0.8,4.4-0.1,6-0.8c-1.8,6.4-5.6,13-5.4,21.3c0.1,5.2,3.2,9.7,8.9,8.6c6.4-1.2,10.5-7.6,14.5-11c-1.3,6.5,1.3,11.3,6.8,11.2
		c6.5-0.1,10.6-6.4,14.4-8.6c-0.7,5.5,0.9,9.3,6.5,8.6c4.2-0.5,7.5-3.5,10.4-5.9c7.3-6.1,14.4-15.3,19-22.8c-1.3,0-2.5,0-3.8,0
		c-3.9,5.1-7.6,10.8-12.4,15c-1.6,1.4-3.5,3.2-6,2.9c-0.5-2.3,1-4.4,2.1-6.2C583.8,349.5,591.1,337,598.5,324.3z M498.9,365.2
		c-1.9,1.6-5.6,4.5-8.2,2.4c-0.9-0.7-1.3-2.4-1.2-4.4c0.3-4.1,2.5-8.5,4.7-12.1c2.4-4.1,4.9-7.4,7.1-10.4c2.3,3.8,5.6,6.5,9.7,8.5
		C508.1,354.8,504.1,360.8,498.9,365.2z M513,345.6c-4.5-1-8.6-4.9-7.4-9.8c0.9-3.8,5-7.9,8.8-7.9c2.8,0.1,3.8,2.9,3.5,6.3
		C517.5,338.7,514.9,343,513,345.6z M563.8,361.3c-1.1,1.4-2.1,3.1-3.8,4.7c-1.3,1.2-3.7,3.3-5.7,2.3c-1.6-0.8-0.9-4.1-0.1-6.2
		c2-5.9,5.4-11.2,8.6-15.9c2.1-3,4.7-6.5,7.1-9.2c2.4-2.7,6.4-7.4,10-8c5.5-1,1.8,4.1,0.4,6.5C575.1,344.3,569.9,353.1,563.8,361.3z
		"/>
	<path class="st0" d="M143.5,281.5c0,16.4,0,32.7,0,49.1c2.2,0,4.3,0,6.5,0c0-16.5,0-33,0-49.6c-2.1,0-4.2,0-6.3,0
		C143.5,281.1,143.5,281.3,143.5,281.5z"/>
	<path class="st0" d="M185.4,300.1c-3.2-3.1-6.5-5.7-12.2-5.7c-16.3,0-22.4,21.7-11.9,32.2c2.5,2.5,6.3,4.5,10.4,4.8
		c7.1,0.5,10.5-2.8,13.8-5.7c0,1.7,0,3.3,0,5c2.2,0,4.3,0,6.5,0c0-16.5,0-33,0-49.6c-2.1,0-4.2,0-6.3,0
		C185.2,287.1,185.5,293.8,185.4,300.1z M185.6,314c-0.4,5.6-4.6,10.7-9.8,11.3c-13.9,1.8-17.1-18.9-6.6-23.9
		c1.1-0.5,2.8-0.8,4.5-0.9C180.4,300.3,186.2,305.8,185.6,314z"/>
	<path class="st0" d="M91.7,294.5c-3.6,0.1-6.9,1.1-9.1,2.4c-4.9,2.9-8.9,8.4-8.9,16c0,7.5,3.7,12.6,7.9,15.4
		c5.6,3.8,13.7,4.1,19.8,0.8c5.2-2.9,9.4-8.6,9.4-16.2c0-5.7-2.5-10.4-5.4-13.3C102.3,296.7,97.6,294.3,91.7,294.5z M104,314.7
		c-0.6,6.4-6,10.7-11.6,10.7c-7,0-12.9-5.7-11.8-14.8c0.6-5.3,4.8-9.5,10.3-10.1C99,299.6,104.8,306.1,104,314.7z"/>
	<path class="st0" d="M123.1,301.4c-0.1-2.1,0.2-4.5-0.2-6.3c-2.2,0-4.3,0-6.5,0c0,11.8,0,23.7,0,35.5c2.2,0,4.4,0,6.7,0
		c0.3-5.7-0.4-11.3,0-16.3c0.6-7.9,5.2-12.8,13.7-12.8c0-2.3,0-4.6,0-7C129.8,294.2,126,298,123.1,301.4z"/>
	<path class="st0" d="M58.2,320.6c-2.8-8.6-5.7-17.2-8.6-25.7c-1.7,0-3.3,0-5,0c-3.3,8.2-5.7,17.4-8.9,25.7
		c-2.7-8.6-5.6-17-8.3-25.5c-2.3,0-4.6,0-7,0c4.1,12,8.2,23.9,12.4,35.8c1.9,0,3.7,0,5.6,0c2.8-8.4,5.6-16.8,8.6-25.1
		c3,8.3,5.7,16.8,8.6,25.1c1.8,0,3.6,0,5.4,0c4.1-11.9,8.4-23.7,12.4-35.8c-2.3,0-4.5,0-6.8,0C63.9,303.7,61.2,312.4,58.2,320.6z"/>
	<path class="st0" d="M332.9,295.1c-6.4,0.3-11.6,4.8-15.6,8.2c-7.5,6.4-13.5,13.9-18.3,22.8c-2.4,4.4-4.8,10.1-4.7,15.9
		c0.1,5.2,2.8,9.4,7.4,9.8c4.8,0.5,9.2-2.6,12.4-5c9.6-7.2,15.3-16.1,21.6-26c1.9-0.3,3.6-0.9,5.4-1.2c-2.7,6.4-8.3,12.9-7.4,22.5
		c0.5,5.1,4.2,9.3,9.7,9.8c6.4,0.6,11.3-3.1,15.1-5.9c3.9-2.8,7.2-6,10.3-8.6c-1.8,4.3-2.4,11.7,1.5,13.6c7,3.4,14.6-4.7,18.1-7.6
		c-0.7,5.2,1,8.6,6.2,8.2c3.4-0.3,6.8-2.8,9.4-4.8c7.9-6.3,15-15.3,20.2-22.8c-1.3,0-2.5,0-3.8,0c-4.1,4.6-7.9,9.7-12.4,13.8
		c-1.5,1.3-3.4,2.9-5.7,2.7c-0.8-2.3,0.7-4.4,1.8-6.2c7.1-11.6,14.3-23.6,21.2-35.2c0.5-0.8,1.3-1.6,1.2-2.6
		c-3.1,0.7-8.2-0.9-10.9,0c-1,0.3-0.9,1.6-1.7,2.1c-2.1-2.9-5-4.1-9.2-2.9c-5.5,1.6-10.4,6.1-14.4,10.1
		c-8.4,8.4-14.3,18.1-22.2,26.8c-3.5,3.8-8.6,9.2-13.9,10.7c-0.8,0.2-2.1,0.4-2.9,0.3c-7.7-1.1-2.4-13.2-0.5-17.1
		c3.7-7.4,7.7-13.7,13-19c2.3-2.3,6.3-6.2,9.4-6.7c3.3-0.5,4.3,1.3,3.5,3.9c-1.1,0.2-2.2,0.1-3.3,0.6c-2,0.9-5.5,4.8-5,8
		c0.5,3.4,4.9,2.6,6.8,1.1c2.4-2.1,5.1-6.7,5.4-10.3c0.6-6.3-3.9-9.3-9.2-8.9c-7.5,0.5-12.3,5.8-17.2,10.3c-5.2,4.7-9.8,9.5-16.5,11
		C341.5,310,345,294.5,332.9,295.1z M382.6,334.4c3.5-9.2,10-17.2,15.9-24.5c2.7-3.4,5.7-7.5,9.8-8.9c1.2-0.4,3-0.2,3.3,0.9
		c0.4,1.3-2,4.3-2.7,5.6c-5.3,8.9-10.3,18.2-16.5,26.3c-1.2,1.5-2.6,3.1-4.1,4.5c-1.4,1.4-3.1,3.2-5.7,2.4
		C380.9,338.9,381.9,336.3,382.6,334.4z M324.1,331.4c-2.6,3.3-5.7,7.2-9.5,8.8c-3.4,1.4-5.9-0.5-5.6-4.7
		c0.6-8.2,8.3-17.1,11.6-22.7c2.4,3.7,6,6.2,10.7,7.6C329.5,324.1,327,327.8,324.1,331.4z M333.5,316.7c-4.5-0.7-8.6-2.5-8.6-7.1
		c0-4.3,4.6-8.9,8.5-9.2c1.6-0.1,2.9,0.7,3.5,1.8L333.5,316.7z"/>
	<path class="st0" d="M444.5,299c0.5-0.9,1.4-1.9,1.2-2.4c-3.5,0-7.1,0-10.6,0c-2.2,3.2-4.2,6.6-6.2,10c3.6,0,7.3,0,10.9,0
		C441.4,304.2,443.1,301.4,444.5,299z"/>
	<path class="st0" d="M181.2,345.7c-0.9,0-1.8,0-2.7,0c0,1.2,0,2.4,0,3.6c0.9,0.1,2.1-0.2,2.7,0.2c0,5.9,0,11.8,0,17.7
		c1.4,0,2.7,0,4.1,0c0.3-5.6,0-11.9,0.1-17.8c2.1,0,4.2,0,6.4,0c0-1.2,0-2.4,0-3.6c-2.1-0.1-4.6,0.2-6.5-0.2c-1-4.6,3.2-5.6,6.5-4.1
		c0-1.3,0-2.5,0-3.8C185.6,335.6,180.2,338.8,181.2,345.7z"/>
	<path class="st0" d="M165.9,345.3c-6.2,0.3-10.7,5-10.7,11.2c0,6.3,4.6,11.1,11,11.2c7,0.1,13.3-6.4,11-14.5
		C176,348.6,171.7,345,165.9,345.3z M173.3,358c-0.6,4.1-4.3,6.4-8.3,5.7c-7.3-1.2-7.2-13.3,0-14.5
		C170.3,348.3,174.2,352.3,173.3,358z"/>
	<path class="st0" d="M586.6,372.2c-1.9,0.3-2.8,1.6-3,2.7c-1,5.4,6.6,6.1,7.4,1.8C591.6,373.6,589.3,371.7,586.6,372.2z M584,375.8
		c0-1.7,0.6-2.6,2.3-3c2.3-0.6,4.2,0.8,4.2,3C590.5,380,584,380.1,584,375.8z"/>
	<path class="st0" d="M586.3,372.8c-1.7,0.4-2.3,1.4-2.3,3c0,4.3,6.5,4.2,6.5,0C590.5,373.6,588.6,372.1,586.3,372.8z M588.6,377.8
		c-0.6,0-0.1-1.1-0.5-1.4c-0.4-0.2-0.9-0.2-1.5-0.2c-0.4,0.2,0.1,1.3-0.3,1.5c-1-0.5-0.2-2.8-0.4-4.1c1.1,0,2.1,0,2.9,0.3
		c0,0.4,0.2,0.5,0.3,0.8c-0.1,0.5-0.2,1.1-0.9,1.1C588.6,375.9,589.3,377.3,588.6,377.8z"/>
	<path class="st0" d="M589,374.7c-0.1-0.3-0.3-0.4-0.3-0.8c-0.7-0.3-1.8-0.3-2.9-0.3c0.3,1.2-0.6,3.6,0.4,4.1
		c0.4-0.2-0.1-1.4,0.3-1.5c0.6,0,1.1,0,1.5,0.2c0.3,0.3-0.2,1.4,0.5,1.4c0.8-0.4,0.1-1.8-0.5-2C588.8,375.9,588.9,375.2,589,374.7z
		 M586.4,375.6c-0.7-1.8,1.6-1.9,1.8-0.8C588.3,375.8,587.3,375.7,586.4,375.6z"/>
	<path class="st0" d="M586.4,375.6c0.9,0,1.8,0.1,1.8-0.8C588.1,373.7,585.8,373.8,586.4,375.6z"/>
	<path class="st0" d="M389.1,363.9c-10.6-4.3-24.4-4.2-37.3-2.1c-12.2,2-23,5.1-34.6,7.9c-10.9,2.6-26.5,5.9-36,0.3
		c-4.8-2.8-7.6-7.1-8.6-12.5c-1.2-6.1,0.2-13,1.8-18.6c3.3-11.1,8.2-20.3,13.9-28.7c5.5-8.1,12.2-16.1,19.5-23
		c5.4-5.1,10.9-10.2,18.9-13c2.7-1,6.9-1.8,8.5,0.2c0.5,0.7,1.2,2.9,0.3,3.9c-0.6,0.7-3.1,0.7-4.1,1.2c-1.3,0.7-2.6,1.9-3.6,3.8
		c-1,1.9-2,6.1,0.6,7.3c3.2,1.5,6.8-2.5,8.2-4.5c1.8-2.7,3.7-6.2,3.3-10.1c-0.4-3.7-2.9-6.5-6.2-7.6c-5.6-1.8-13.3,0.8-17.7,2.6
		c-14.5,5.8-25.7,15.8-35.1,26c-6.4,7-12.1,14.9-16.6,24c-4.3,8.8-8.7,19.8-7.9,32.6c0.9,13.1,7.1,20.6,16.6,24
		c10.7,3.9,24.3,0.5,34.9-2.1c10.3-2.5,22.1-6,34.3-6.3c13.6-0.4,22.9,2.6,28.7,12.1c1.8-2.1,3.2-3.5,5.3-4.8
		c10.9-6.9,30.4,0.2,37.6,5.3c0,0,0,0,0,0C406.6,373.9,398.7,367.8,389.1,363.9z"/>
	<path class="st0" d="M414,381.7c-0.1,0-0.1-0.1-0.2-0.1C413.9,381.7,414,381.7,414,381.7z"/>
	<path class="st0" d="M620.3,268c-10.3,9.7-22.8,20-42.9,19.3c-2.7,3.3-6.3,6.4-8.3,9.8c13.3,2.1,23.9-2.2,31.9-7.6
		c8.1-5.4,14.7-13,19.3-21.5C620.4,268.2,620.5,268.1,620.3,268z"/>
</g>
</svg>
