<?xml version="1.0" encoding="utf-8"?>
<!-- Generator: Adobe Illustrator 19.2.1, SVG Export Plug-In . SVG Version: 6.00 Build 0)  -->
<svg version="1.1" id="layer" xmlns="http://www.w3.org/2000/svg" xmlns:xlink="http://www.w3.org/1999/xlink" x="0px" y="0px"
	 viewBox="0 0 652 652" style="enable-background:new 0 0 652 652;" xml:space="preserve">
<style type="text/css">
	.st0{fill:#2C2663;}
</style>
<g>
	<path class="st0" d="M146.8,255c-6.3,4.3-22.7,22.8-22.7,22.8c-3.3,3.5-4.9,3.2-4.9,3.2c-2,0.2-2.5-2.3-2.5-2.3
		c-0.2-1-0.5-1.9-0.7-2.8v-0.1c-2.7-10.4-4.5-16.5-6.5-21.2c0,0,3-0.2,4.7-0.4c1.6-0.2,1.4,0.3,1.6,1c0,0,0.4,1.3,0.9,1.3
		c0.6,0,0.6-0.5,0.6-0.5c0.3-1.4,0.3-7.4-2.4-7.7c-2.7-0.4-6.1,0-6.1,0c-1.1-1.1-1.8-2-3.2-2.4c-1.7-0.8-6.6-0.5-6.6-0.5
		s-1.9,0-4,0.3c-1.9,0.3-3.5,1.8-4.8,4.2c-5.3,9.6-9.2,24.8-9.9,27.5c0,0-0.7,3.1-2.2,3c0,0-1.3,0.7-4.5-2.8
		c0,0-16.4-18.5-22.7-22.8c-5.8-3.9-25.7-7.6-29.3,26.5c-3.5,32.9,10.9,70.5,21.3,118c0,0,12.2-7.8,14.5-23.1l1.1,1.7
		c0.9,1.3,3.6,1.6,5.6-1.1l4.8-6.7c2-2.7,0.3-5,0-5.5l-1-1.7c-0.2-0.3-0.1-0.7,0.2-0.9l7.3-5.3c0.3-0.2,0.7-0.2,0.9,0.1l1.2,1.5
		c0.3,0.4,2,2.7,5.2,1.7l7.8-2.5c3.2-1,3.2-3.8,3.2-4.4l0.1-1.9c0-0.3,0.3-0.6,0.6-0.6h9.1c0.3,0,0.6,0.3,0.6,0.6l0.1,1.9
		c0,0.6,0.1,3.4,3.2,4.4l7.8,2.5c3.2,1,4.8-1.2,5.2-1.7l1.2-1.5c0.2-0.3,0.6-0.3,0.9-0.1l7.3,5.3c0.3,0.2,0.3,0.6,0.2,0.9l-1,1.7
		c-0.3,0.5-1.9,2.8,0,5.5l4.8,6.7c2,2.7,4.7,2.4,5.6,1.1l1.1-1.7c2.3,15.3,14.5,23.1,14.5,23.1c10.4-47.5,24.8-85.2,21.3-118
		C172.4,247.5,152.5,251.2,146.8,255 M72.4,282.7c2.7,2.6,4.4,2.5,5.1,2.4c0.5,0,1.1-0.1,1.6-0.5c-0.6,3.4-1.1,8.8-1.1,8.8
		c0,0.3-0.4,1.6-1.4,2.4c-0.9,0.7-2.8,2.8-7.1,1.4c-5.3-1.8-6.6-5.1-6.5-7.5c0-1.3,0.5-3.2,0.7-4.2c0.7-2.9,1.8-6.7,3.1-8.7
		C67.2,277.3,72.4,282.7,72.4,282.7 M54.4,263.8c3.8,3.5,6.4,6.2,9.3,9.5c-0.8,1.4-2.9,6.3-3.7,10c-0.3,1.5-1.1,5.4-3.8,6.2
		c-1.4,0.4-3.4,0.2-5.1-0.8c-3.9-2.3-5.2-5.5-5.2-7.8c0-1.7,0.9-4.3,0.9-4.4C48.5,270.3,52.8,265,54.4,263.8 M37.9,257.4
		c4.4-1.8,8.7-0.3,10.9,1.4c0.8,0.6,2.1,1.5,2.7,2.2c-2.4,1.9-6.2,5.7-9,14.8c-0.2,0.9-1,3.1-4,1.9c0,0-5.2-1.9-9.2,1
		c-1.7,1.2-2.7,2.4-3.6,4.1C26.1,269.1,32.5,259.6,37.9,257.4 M45.4,391.8c-3.9-18-9.8-41-9.9-41.2c-7.4-27.7-8.9-40.5-8.9-40.6
		c0-0.1-1-6.3-1.1-11.5c-0.2-8.5,1.4-14.7,7.9-16.6c1.1-0.2,3.4-0.8,6.5,1.5c0,0-0.5,2.8-0.6,4.5c-0.2,2.4-0.4,4.1-0.4,6.3
		c0.5,27.2,6.6,46.4,10.6,61.6c1.7,6.4,3.2,11.3,3.4,14.6C53.9,381.2,47.3,389.6,45.4,391.8 M64.2,360.6c-1.5,1.1-1.2,3.4-0.6,4.2
		l2,3.2l-5,7c-6.7-19.2-16.8-52.8-16.9-77.9c0-1.2,0-2.5,0.1-3.7c0.1-3,0.2-4.4,0.5-6.2c0.7,3.4,5.3,9,13.8,6.9
		c0,0.8-0.1,1.5-0.1,2.4c0,2.9,0.1,8.9,0.4,12.2c2.1,21.3,6.1,38.2,9.9,49L64.2,360.6z M78.6,353.8c-0.6-0.8-2.7-1.8-4.2-0.7
		l-2.4,1.8c-8.1-24.7-10-47-9.9-58.5c0.8,4,9.6,8.5,15.5,3.4c-0.3,4.5-0.9,26.3,3.4,57C80.4,355.9,78.6,353.8,78.6,353.8z
		 M82.4,325.2c-0.5-6.2-1.4-33.7,2-44.5c1,3.5,6.7,6.4,11.9,3.1v41.3C95.3,322.6,86.7,320,82.4,325.2 M96.4,347.2l-4,0.1
		c-1.8,0-2.9,2-3,3c0,0-0.2,2.8-0.2,3.7l-4.3,1.4C82.7,339,83,334.2,83,334.2c0-5.4,3.2-7,6.6-7c2.4,0,6.9,0.9,6.9,8.1V347.2z
		 M98.8,276.4c-0.1-0.2-0.3-0.4-0.5-0.4c-0.2,0-0.4,0.2-0.5,0.4c0,0.1-0.9,3.6-4.9,4.3c-1.9,0.4-3.4,0-4.6-1
		c-1.7-1.5-2.2-3.8-2.1-5.5c0-0.6,0.1-1.5,0.4-2.7c1.5-6.6,5.9-22,10.1-22h0c4.1-0.4,8.8-0.2,9.2,0.7c0.3,0.8,0.5,1.8,0.3,2.1
		c0,0-0.1,0.1-0.2,0.1c-0.4,0-4.1,0-5,1c-0.2,0.2-0.3,0.5-0.2,0.7c0.1,0.6,0.8,0.8,1.5,1.1c1.1,0.3,2.8,0.9,4,3
		c1.5,2.8,3.6,9.1,4.6,13.4c0,0,0.3,1.2,0.4,2.7c0.1,1.7-0.4,4.1-2.1,5.6c-1.2,1.1-3.6,1.4-5.5,1C99.7,280.1,98.8,276.5,98.8,276.4
		 M112.6,355.4l-4.2-1.4c0,0-0.2-3.7-0.2-3.7c-0.1-1-1.2-3-3-3l-4-0.1v-11.9c0-7.2,4.4-8.1,6.8-8.1c3.3,0,6.6,1.6,6.6,7
		C114.5,334.2,114.5,338.9,112.6,355.4 M115.2,325.2c-4.3-5.2-13-2.7-13.9-0.1v-41.3c5.2,3.3,10.9,0.3,11.9-3.1
		C116.5,291.5,115.6,319,115.2,325.2 M148.7,258.8c2.2-1.7,6.5-3.2,10.9-1.4c5.4,2.2,11.8,11.6,12.3,25.4c-1-1.7-1.9-2.9-3.7-4.1
		c-4-2.9-9.2-1-9.2-1c-3,1.3-3.7-1-4-1.9c-2.8-9.1-6.6-12.9-9-14.8C146.7,260.3,148,259.4,148.7,258.8 M143.1,263.8
		c1.6,1.2,5.8,6.5,7.6,12.8c0,0.1,0.9,2.7,0.9,4.4c0,2.3-1.4,5.5-5.2,7.8c-1.7,1-3.7,1.2-5.1,0.8c-2.8-0.9-3.5-4.8-3.8-6.2
		c-0.8-3.7-2.9-8.5-3.7-10C136.7,270.1,139.3,267.3,143.1,263.8 M120.1,285.2c0.7,0,2.4,0.2,5.1-2.4c0,0,5.1-5.4,5.7-6
		c1.3,2.1,2.4,5.8,3.1,8.7c0.2,1,0.7,2.9,0.7,4.2c0.1,2.4-1.2,5.8-6.5,7.5c-4.3,1.4-6.2-0.7-7.1-1.4c-0.9-0.8-1.4-2.1-1.4-2.4
		c0,0-0.5-5.4-1.1-8.8C119,285,119.6,285.1,120.1,285.2 M123.1,353.1c-1.5-1.1-3.6-0.1-4.2,0.7c0,0-1.7,2.1-2.4,2.9
		c4.3-30.6,3.8-52.5,3.4-57c5.8,5.2,14.7,0.7,15.5-3.4c0.1,11.5-1.9,33.8-9.9,58.5L123.1,353.1z M137,374.9l-5.1-7l2-3.2
		c0.5-0.9,0.8-3.1-0.6-4.2l-3.9-3c3.7-10.9,7.9-28.2,9.9-48.9c0.3-3.4,0.4-9.3,0.4-12.2c0-0.9,0-1.6-0.1-2.4
		c8.5,2,13.1-3.6,13.7-6.9c0.3,1.8,0.3,3.2,0.5,6.2c0.1,1.2,0.1,2.5,0.1,3.7C153.8,322.1,143.7,356.6,137,374.9 M170.9,310
		c0,0.1-1.4,12.8-8.9,40.6c-0.1,0.2-6,23.2-9.9,41.2c-2-2.1-8.5-10.6-7.6-21.3c0.3-3.2,1.7-8.1,3.4-14.6c4-15.3,10.1-34.5,10.6-61.6
		c0-2.2-0.2-4-0.4-6.3c-0.1-1.7-0.6-4.5-0.6-4.5c3-2.4,5.4-1.8,6.5-1.5c6.6,1.9,8.1,8.1,7.9,16.6C171.9,303.7,170.9,309.9,170.9,310
		"/>
	<path class="st0" d="M98.8,363.7c-8.9,0-17.1,3.4-23.1,9.5c-6,6.2-9.4,14.6-9.4,23.8c0,0.2,0,0.3,0,0.5h4.6c0-0.2,0-0.3,0-0.5
		c0-16.2,12-28.4,27.9-28.4c15.9,0,27.9,12.2,27.9,28.4c0,0.2,0,0.3,0,0.5h4.6c0-0.2,0-0.3,0-0.5c0-9.2-3.3-17.6-9.4-23.8
		C115.9,367.1,107.7,363.7,98.8,363.7"/>
	<path class="st0" d="M98.8,377.6c-5.2,0-10,2-13.4,5.5c-3.5,3.6-5.4,8.5-5.4,13.8c0,0.2,0,0.3,0,0.5H85c0-0.3,0-0.5,0-0.8
		c0-7.8,6-13.8,13.8-13.8c7.9,0,13.8,5.9,13.8,13.8c0,0.3,0,0.5,0,0.8h5.1c0-0.2,0-0.3,0-0.5c0-5.3-1.9-10.2-5.4-13.8
		C108.7,379.6,103.9,377.6,98.8,377.6"/>
	<polygon class="st0" points="215.9,272.8 215.9,285.4 230,285.4 230,289.8 215.9,289.8 215.9,310.9 211.2,310.9 211.2,268.4 
		230.5,268.4 230.5,272.8 	"/>
	<polygon class="st0" points="238,268.4 260,268.4 260,272.8 242.8,272.8 242.8,285.4 259.5,285.4 259.5,289.8 242.8,289.8 
		242.8,306.5 260,306.5 260,310.9 238,310.9 	"/>
	<path class="st0" d="M268,268.4h8c6.3,0,11.5,0.8,16.5,5.1c4.8,4.2,7,9.9,7,16.2c0,6.2-2.2,11.7-6.9,15.9c-5,4.5-10.1,5.4-16.7,5.4
		H268V268.4z M276.1,306.5c5.2,0,9.5-0.7,13.4-4.4c3.5-3.3,5.3-7.7,5.3-12.5c0-4.9-1.8-9.5-5.5-12.8c-3.9-3.4-8.1-4.1-13.1-4.1h-3.4
		v33.8H276.1z"/>
	<polygon class="st0" points="306,268.4 328,268.4 328,272.8 310.7,272.8 310.7,285.4 327.5,285.4 327.5,289.8 310.7,289.8 
		310.7,306.5 328,306.5 328,310.9 306,310.9 	"/>
	<path class="st0" d="M340.7,310.9H336v-42.5h6.1c8,0,15.5,2.1,15.5,11.7c0,6.5-4.1,11.2-10.6,11.7l13.5,19.1h-5.8l-12.8-18.7h-1.2
		V310.9z M340.7,288h1.5c5.3,0,10.7-1,10.7-7.6c0-7-5.1-7.7-10.8-7.7h-1.4V288z"/>
	<path class="st0" d="M398.6,277.7c-3.4-3.5-8-5.6-12.9-5.6c-9.4,0-17.1,8.2-17.1,17.6c0,9.4,7.7,17.6,17.2,17.6
		c4.8,0,9.4-2.3,12.8-5.6v5.9c-3.6,2.6-8.1,4.2-12.6,4.2c-11.9,0-22.1-9.8-22.1-21.8c0-12.2,9.9-22.2,22.1-22.2
		c4.7,0,8.9,1.4,12.6,4.2V277.7z"/>
	<polygon class="st0" points="433.2,285.6 433.2,268.4 437.9,268.4 437.9,310.9 433.2,310.9 433.2,290 411.5,290 411.5,310.9 
		406.8,310.9 406.8,268.4 411.5,268.4 411.5,285.6 	"/>
	<rect x="446.8" y="268.4" class="st0" width="4.7" height="42.5"/>
	<polygon class="st0" points="465.6,265.9 480.9,301.6 496.4,265.9 504.9,310.9 500.1,310.9 494.7,282.1 494.6,282.1 480.9,312.6 
		467.4,282.1 467.2,282.1 461.8,310.9 457,310.9 	"/>
	<rect x="510.4" y="268.4" class="st0" width="4.7" height="42.5"/>
	<path class="st0" d="M556,277.7c-3.4-3.5-8-5.6-12.9-5.6c-9.4,0-17.1,8.2-17.1,17.6c0,9.4,7.7,17.6,17.2,17.6
		c4.8,0,9.4-2.3,12.8-5.6v5.9c-3.6,2.6-8.1,4.2-12.6,4.2c-11.9,0-22.1-9.8-22.1-21.8c0-12.2,9.9-22.2,22.1-22.2
		c4.7,0,8.9,1.4,12.6,4.2V277.7z"/>
	<path class="st0" d="M570.3,298.8l-5.1,12.1H560l19.5-44.6l19,44.6h-5.2l-5-12.1H570.3z M579.4,277.4l-7.2,17h14.3L579.4,277.4z"/>
	<path class="st0" d="M224.2,381.1l-5.5,16.5h-7l17.9-52.6h8.2l17.9,52.6h-7.3l-5.6-16.5H224.2z M241.4,375.8l-5.1-15.1
		c-1.2-3.4-2-6.6-2.7-9.6h-0.2c-0.8,3.1-1.6,6.3-2.7,9.5l-5.1,15.2H241.4z"/>
	<path class="st0" d="M262.5,389.3c3,1.9,7.5,3.4,12.2,3.4c6.9,0,11-3.7,11-9c0-4.9-2.8-7.7-9.9-10.4c-8.6-3.1-13.9-7.5-13.9-14.9
		c0-8.2,6.8-14.3,17-14.3c5.4,0,9.3,1.3,11.6,2.6l-1.9,5.5c-1.7-0.9-5.2-2.5-10-2.5c-7.2,0-9.9,4.3-9.9,7.9c0,4.9,3.2,7.3,10.4,10.1
		c8.9,3.4,13.4,7.7,13.4,15.5c0,8.1-6,15.1-18.4,15.1c-5.1,0-10.6-1.5-13.4-3.4L262.5,389.3z"/>
	<path class="st0" d="M301,389.3c3,1.9,7.5,3.4,12.2,3.4c6.9,0,11-3.7,11-9c0-4.9-2.8-7.7-9.9-10.4c-8.6-3.1-13.9-7.5-13.9-14.9
		c0-8.2,6.8-14.3,17-14.3c5.4,0,9.3,1.3,11.6,2.6l-1.9,5.5c-1.7-0.9-5.2-2.5-10-2.5c-7.2,0-9.9,4.3-9.9,7.9c0,4.9,3.2,7.3,10.5,10.1
		c8.9,3.4,13.4,7.7,13.4,15.5c0,8.1-6,15.1-18.4,15.1c-5.1,0-10.6-1.5-13.4-3.4L301,389.3z"/>
	<path class="st0" d="M385.3,370.8c0,18.1-11,27.7-24.4,27.7c-13.9,0-23.6-10.8-23.6-26.7c0-16.7,10.4-27.6,24.4-27.6
		C376,344.1,385.3,355.2,385.3,370.8 M344.5,371.6c0,11.2,6.1,21.3,16.8,21.3c10.8,0,16.9-9.9,16.9-21.9c0-10.5-5.5-21.4-16.8-21.4
		C350.1,349.7,344.5,360.1,344.5,371.6"/>
	<path class="st0" d="M394.1,345.7c3-0.6,7.7-1.1,12.4-1.1c6.8,0,11.2,1.2,14.4,3.8c2.7,2,4.4,5.1,4.4,9.3c0,5.1-3.4,9.5-8.9,11.6
		v0.2c5,1.2,10.8,5.4,10.8,13.2c0,4.5-1.8,8-4.4,10.5c-3.7,3.4-9.6,4.9-18.2,4.9c-4.7,0-8.3-0.3-10.5-0.6V345.7z M400.9,367.2h6.2
		c7.2,0,11.4-3.8,11.4-8.8c0-6.2-4.7-8.6-11.5-8.6c-3.1,0-4.9,0.2-6,0.5V367.2z M400.9,392.4c1.3,0.2,3.3,0.3,5.7,0.3
		c7,0,13.5-2.6,13.5-10.2c0-7.2-6.2-10.1-13.6-10.1h-5.6V392.4z"/>
	<rect x="436.4" y="345" class="st0" width="6.8" height="52.6"/>
	<path class="st0" d="M500,370.8c0,18.1-11,27.7-24.4,27.7c-13.9,0-23.6-10.8-23.6-26.7c0-16.7,10.4-27.6,24.4-27.6
		C490.7,344.1,500,355.2,500,370.8 M459.2,371.6c0,11.2,6.1,21.3,16.8,21.3c10.8,0,16.9-9.9,16.9-21.9c0-10.5-5.5-21.4-16.8-21.4
		C464.8,349.7,459.2,360.1,459.2,371.6"/>
	<polygon class="st0" points="516.9,350.8 500.9,350.8 500.9,345 539.8,345 539.8,350.8 523.8,350.8 523.8,397.6 516.9,397.6 	"/>
	<polygon class="st0" points="572.9,372.9 552.5,372.9 552.5,391.9 575.3,391.9 575.3,397.6 545.7,397.6 545.7,345 574.1,345 
		574.1,350.7 552.5,350.7 552.5,367.3 572.9,367.3 	"/>
	<path class="st0" d="M620.8,395.9c-2.5,1.2-7.5,2.5-13.9,2.5c-14.8,0-26-9.4-26-26.6c0-16.5,11.2-27.6,27.5-27.6
		c6.6,0,10.7,1.4,12.5,2.3l-1.6,5.5c-2.6-1.3-6.2-2.2-10.6-2.2c-12.3,0-20.5,7.9-20.5,21.7c0,12.9,7.4,21.1,20.2,21.1
		c4.1,0,8.4-0.9,11.1-2.2L620.8,395.9z"/>
</g>
</svg>
