<?xml version="1.0" encoding="utf-8"?>
<!-- Generator: Adobe Illustrator 19.2.1, SVG Export Plug-In . SVG Version: 6.00 Build 0)  -->
<svg version="1.1" id="layer" xmlns="http://www.w3.org/2000/svg" xmlns:xlink="http://www.w3.org/1999/xlink" x="0px" y="0px"
	 viewBox="0 0 652 652" style="enable-background:new 0 0 652 652;" xml:space="preserve">
<style type="text/css">
	.st0{fill:#E50B16;}
	.st1{fill:#241C1D;}
	.st2{fill:#868686;}
</style>
<polygon class="st0" points="88.1,372.3 21.2,372.3 54.7,319.7 121.5,319.7 "/>
<polygon class="st0" points="155,372.3 221.9,372.3 188.4,319.7 121.5,319.7 "/>
<polygon class="st0" points="155,267.2 121.5,214.6 88.1,267.2 121.5,319.7 "/>
<polygon class="st1" points="251.9,349.9 278.7,349.9 278.7,341.1 251.9,341.1 251.9,330.3 282,330.3 282,321.5 251.9,321.5 
	240.5,321.5 240.5,330.3 240.5,363.5 240.5,372.3 251.9,372.3 282.8,372.3 282.8,363.5 251.9,363.5 "/>
<polygon class="st1" points="251.1,275.2 263,313 263.5,313 273.5,313 273.9,313 285.8,275.2 285.8,313 296.4,313 296.4,262.1 
	290.6,262.1 285.6,262.1 280.2,262.1 268.5,297.8 256.7,262.1 251.3,262.1 246.3,262.1 240.5,262.1 240.5,313 251.1,313 "/>
<rect x="497.8" y="262.1" class="st1" width="11.3" height="50.9"/>
<rect x="507" y="321.5" class="st1" width="11.3" height="50.9"/>
<rect x="609.4" y="262.1" class="st1" width="11.3" height="50.9"/>
<rect x="300.9" y="262.1" class="st1" width="11.3" height="50.9"/>
<polygon class="st1" points="593.6,281.9 571.2,281.9 571.2,262.1 560.1,262.1 560.1,313 571.2,313 571.2,290.8 593.6,290.8 
	593.6,313 604.7,313 604.7,262.1 593.6,262.1 "/>
<polygon class="st1" points="328.9,313 340.4,313 340.4,270.9 354.1,270.9 354.1,262.1 340.4,262.1 328.9,262.1 315.2,262.1 
	315.2,270.9 328.9,270.9 "/>
<polygon class="st1" points="431.8,372.3 443.3,372.3 443.3,330.3 457,330.3 457,321.4 443.3,321.4 431.8,321.4 418.1,321.4 
	418.1,330.3 431.8,330.3 "/>
<path class="st1" d="M424.1,314.4c14.4,0,22.4-5.9,22.4-17.3v-35h-11.3V298c0,4.4-4.1,8-11.1,8c-8.5,0-11-4.3-11-8v-35.9H402v35
	C402,309.3,410.4,314.4,424.1,314.4"/>
<polygon class="st1" points="338.8,349.9 365.6,349.9 365.6,341.1 338.8,341.1 338.8,330.3 368.9,330.3 368.9,321.5 338.8,321.5 
	327.5,321.5 327.5,330.3 327.5,363.5 327.5,372.3 338.8,372.3 369.7,372.3 369.7,363.5 338.8,363.5 "/>
<path class="st1" d="M462.1,313h16.2c10.5,0,16.8-5.7,16.8-13.7c0-6.4-5.2-12-10.8-13.3c4.9-1.1,8.9-5.7,8.9-11.3
	c0-7.5-6.1-12.5-17.5-12.5h-13.6h-11.6h-0.1V313h0.1H462.1z M474.9,305.3h-13.2v-14.7h13.1c4.7,0,8.7,2.5,8.7,7.4
	C483.5,302.1,479.8,305.3,474.9,305.3 M475.7,270.2c3.1,0,6.5,2.6,6.5,6c0,3-2.4,6.4-7.2,6.4h-13.4v-12.4H475.7z"/>
<path class="st1" d="M493.6,347.9c4.8-1.3,9.9-5.2,9.9-12.3c0-9-6.7-14.2-18.2-14.2h-14.2h-11.2h-0.1v50.9h11.3v-20h9.6
	c5.8,0,9,2.7,10,6.4c1,4,0.8,10,1.9,13.7H504c-1.1-3.9-1.8-9.2-2-13.4C501.6,352,497.6,349.2,493.6,347.9 M471.1,344v-13.8h13.7
	c4.6,0,7.7,2.9,7.7,7c0,2.8-2.7,6.9-7.4,6.9H471.1z"/>
<polygon class="st1" points="297.8,321.4 286.5,321.4 286.5,363.5 286.5,372.3 297.8,372.3 324.2,372.3 324.2,363.5 297.8,363.5 "/>
<path class="st1" d="M373,291.5c9.1,1.4,14.3,3,14.3,7.9c0,3.3-3.6,6.5-11.2,6.5c-7.5,0-11.4-3.9-11.4-8.5h-10.9
	c0,8.9,6.3,16.9,22.8,16.9c15.7,0,22.5-7.5,22.5-16.1c0-8-5.8-13.1-16.1-15c-9.9-1.8-16.8-2.2-16.8-7.9c0-3.9,4-6.2,10-6.2
	c6.5,0,10.2,2.9,10.2,7.8h11c0-8-6.7-16.3-21.6-16.3c-10.3,0-20.9,5.4-20.9,15.4C354.8,284.5,361.6,289.7,373,291.5"/>
<path class="st1" d="M531,291.5c9.1,1.4,14.3,3,14.3,7.9c0,3.3-3.6,6.5-11.2,6.5c-7.5,0-11.4-3.9-11.4-8.5h-10.9
	c0,8.9,6.3,16.9,22.8,16.9c15.7,0,22.5-7.5,22.5-16.1c0-8-5.8-13.1-16.1-15c-10-1.8-16.8-2.2-16.8-7.9c0-3.9,4-6.2,10-6.2
	c6.5,0,10.2,2.9,10.2,7.8h11c0-8-6.7-16.3-21.6-16.3c-10.3,0-20.9,5.4-20.9,15.4C512.8,284.5,519.6,289.7,531,291.5"/>
<path class="st1" d="M395.3,364.4c-9.1,0-14.4-8.1-14.4-17.8c0-9.7,5.1-17.8,14.4-17.8c6.9,0,10.5,3.9,12,8.7H419
	c-1.9-10-10.5-17.3-24.1-17.3c-17.1,0-25.8,11.9-25.8,26.6c0,14.7,9,26.6,25.8,26.6c13.4,0,22.5-7.1,24.2-18h-11.8
	C405.8,360.5,402.1,364.4,395.3,364.4"/>
<path class="st1" d="M547.1,364.4c-9.1,0-14.5-8.1-14.5-17.8c0-9.7,5.1-17.8,14.5-17.8c6.9,0,10.5,3.9,12,8.7h11.8
	c-1.9-10-10.5-17.3-24.1-17.3c-17.1,0-25.8,11.9-25.8,26.6c0,14.7,9,26.6,25.8,26.6c13.4,0,22.5-7.1,24.2-18h-11.9
	C557.6,360.5,553.9,364.4,547.1,364.4"/>
<polygon class="st2" points="23.2,392.5 49,392.5 49,398.6 31.3,398.6 31.3,406.3 46.7,406.3 46.7,412 31.3,412 31.3,425.8 
	23.2,425.8 "/>
<path class="st2" d="M60.9,392.5h8.3L83,425.9h-8.4l-2.8-7.4H58l-2.9,7.4H47L60.9,392.5z M60.2,412.9h9.5l-4.6-12.3H65L60.2,412.9z"
	/>
<path class="st2" d="M110.7,403.7c-0.5-3.3-4-5.8-8-5.8c-7.3,0-10,5.6-10,11.4c0,5.6,2.7,11.2,10,11.2c4.9,0,7.7-3.1,8.4-7.5h7.8
	c-0.8,8.3-7.1,13.7-16.2,13.7c-11.4,0-18.1-7.7-18.1-17.4c0-9.9,6.7-17.6,18.1-17.6c8.1,0,14.9,4.3,15.9,12H110.7z"/>
<polygon class="st2" points="132.5,398.6 121.5,398.6 121.5,392.5 151.7,392.5 151.7,398.6 140.6,398.6 140.6,425.8 132.5,425.8 "/>
<path class="st2" d="M172.4,391.6c11.4,0,18.1,7.7,18.1,17.6c0,9.6-6.7,17.4-18.1,17.4c-11.4,0-18.1-7.7-18.1-17.4
	C154.3,399.4,161,391.6,172.4,391.6 M172.4,420.4c7.3,0,10-5.6,10-11.2c0-5.8-2.7-11.4-10-11.4c-7.3,0-10,5.6-10,11.4
	C162.3,414.8,165.1,420.4,172.4,420.4"/>
<path class="st2" d="M196,392.5h19.8c6.6,0,10.8,4.1,10.8,9.2c0,3.9-1.8,6.9-5.8,8.4v0.1c4,0.9,5.1,4.5,5.4,7.8
	c0.1,2.1,0.1,6,1.5,7.9h-8.1c-1-2.1-0.9-5.3-1.3-8c-0.5-3.5-2.1-5.1-6.1-5.1h-8.1v13.1H196V392.5z M204.1,407.5h8.9
	c3.6,0,5.6-1.4,5.6-4.7c0-3.2-1.9-4.6-5.6-4.6h-8.9V407.5z"/>
<polygon class="st2" points="240.8,412.8 227.3,392.5 236.4,392.5 245,405.6 253.6,392.5 262.6,392.5 248.9,413 248.9,425.9 
	240.8,425.9 "/>
<path class="st2" d="M290,392.5h8.3l13.8,33.4h-8.4l-2.8-7.4h-13.8l-2.9,7.4h-8.2L290,392.5z M289.3,412.9h9.5l-4.6-12.3h-0.1
	L289.3,412.9z"/>
<path class="st2" d="M346.5,413.2c0,9-5.9,13.4-15.7,13.4c-9.9,0-15.7-4.4-15.7-13.4v-20.8h8.1v20.8c0,3.6,1,7.2,7.6,7.2
	c5.8,0,7.6-2.3,7.6-7.2v-20.8h8.1V413.2z"/>
<polygon class="st2" points="361.6,398.6 350.6,398.6 350.6,392.5 380.8,392.5 380.8,398.6 369.7,398.6 369.7,425.8 361.6,425.8 "/>
<path class="st2" d="M401.5,391.6c11.4,0,18.1,7.7,18.1,17.6c0,9.6-6.7,17.4-18.1,17.4c-11.4,0-18.1-7.7-18.1-17.4
	C383.4,399.4,390.1,391.6,401.5,391.6 M401.5,420.4c7.3,0,10-5.6,10-11.2c0-5.8-2.7-11.4-10-11.4c-7.3,0-10,5.6-10,11.4
	C391.5,414.8,394.2,420.4,401.5,420.4"/>
<polygon class="st2" points="425.1,392.5 436.5,392.5 445.1,415.4 445.2,415.4 453.3,392.5 464.7,392.5 464.7,425.8 457.1,425.8 
	457.1,402.2 457,402.2 448,425.8 441.8,425.8 432.8,402.4 432.7,402.4 432.7,425.8 425.1,425.8 "/>
<path class="st2" d="M481.9,392.5h8.3l13.8,33.4h-8.4l-2.8-7.4H479l-2.9,7.4h-8.2L481.9,392.5z M481.1,412.9h9.5l-4.6-12.3h-0.1
	L481.1,412.9z"/>
<polygon class="st2" points="511.5,398.6 500.4,398.6 500.4,392.5 530.6,392.5 530.6,398.6 519.6,398.6 519.6,425.8 511.5,425.8 "/>
<rect x="534.8" y="392.5" class="st2" width="8.1" height="33.4"/>
<path class="st2" d="M566.5,391.6c11.4,0,18.1,7.7,18.1,17.6c0,9.6-6.7,17.4-18.1,17.4c-11.4,0-18.1-7.7-18.1-17.4
	C548.4,399.4,555.1,391.6,566.5,391.6 M566.5,420.4c7.3,0,10-5.6,10-11.2c0-5.8-2.8-11.4-10-11.4c-7.3,0-10,5.6-10,11.4
	C556.5,414.8,559.2,420.4,566.5,420.4"/>
<polygon class="st2" points="590.1,392.5 598.2,392.5 613.5,414.8 613.6,414.8 613.6,392.5 621.2,392.5 621.2,425.8 613.1,425.8 
	597.8,403.5 597.7,403.5 597.7,425.8 590.1,425.8 "/>
</svg>
